<?xml version="1.0" encoding="utf-8"?>
<!-- Generator: Adobe Illustrator 27.5.0, SVG Export Plug-In . SVG Version: 6.00 Build 0)  -->
<svg version="1.1" xmlns="http://www.w3.org/2000/svg" xmlns:xlink="http://www.w3.org/1999/xlink" x="0px" y="0px"
	 viewBox="0 0 500 500" style="enable-background:new 0 0 500 500;" xml:space="preserve">
<g id="BACKGROUND">
	<rect style="fill:#FFFFFF;" width="500" height="500"/>
</g>
<g id="OBJECTS">
	<g>
		<polygon style="fill:#165CA8;" points="267.842,207.672 289.523,228.948 0,414.66 0,500 117.921,500 400.851,311.796 
			424.989,332.956 466.708,194.765 		"/>
		<g>
			<path style="fill-rule:evenodd;clip-rule:evenodd;fill:#004D87;" d="M277.383,322.079c-5.384-2.481-15.903,1.875-25.686,7.293
				c-0.267-0.083-0.528-0.187-0.798-0.257c-6.034-1.574-12.405,0.879-18.178,2.497c-14.256,3.995-28.148,9.548-40.786,16.995
				c-5.424,3.196-9.26,6.794-12.372,12.132c-6.313,10.829-15.164,13.593-26.291,18.976c-10.958,5.301-24.682,14.92-20.707,28.297
				c2.063,6.939,8.828,12.583,16.681,12.177c0.894-0.046,1.755-0.158,2.588-0.326c9.018-1.823,14.717-10.3,22.456-14.579
				c17.645-9.754,39.269-7.038,56.764-17.548c13.552-8.141,26.716-19.276,36.911-30.991c1.184-1.361,2.019-2.873,2.552-4.446
				C292.647,339.908,287.269,326.635,277.383,322.079z"/>
			<g>
				<path style="fill:#0F1121;" d="M232.338,333.634c-0.73,5.73-0.684,11.559,0.138,17.277c0.095,0.659,0.203,1.328,0.505,1.921
					c0.382,0.752,1.042,1.32,1.699,1.848c1.904,1.529,4.026,2.939,6.44,3.312c4.02,0.623,7.858-1.714,11.142-4.115
					c0.493-0.361,1-0.743,1.287-1.283c0.657-1.233-0.048-2.769,0.244-4.136c1.558,0.532,3.117,1.064,4.675,1.596
					c0.378,0.129,0.775,0.26,1.168,0.192c0.327-0.056,0.614-0.243,0.89-0.426c4.001-2.652,7.92-5.43,11.685-8.406
					c3.93-3.105,7.283-5.253,9.431-9.945c0.709-1.55,1.076-3.309,0.711-4.974c-0.931-4.241-5.737-5.415-9.496-5.077
					c-4.387,0.396-7.72,1.587-11.135,4.29c-2.024,1.602-4.136,3.06-6.253,4.536c-0.442,0.308-0.888,0.618-1.385,0.826
					c-0.673,0.281-1.41,0.362-2.135,0.44C245.412,332.217,238.875,332.922,232.338,333.634z"/>
				<path style="fill:#21233A;" d="M163.321,232.108c0,0,6.117,27.435,28.733,36.148c22.616,8.713,30.216,18.538,30.216,18.538
					s7.415,43.748,8.342,48.568c0.927,4.82,20.02,6.488,23.172-3.893c0,0-3.522-44.119-6.488-52.461
					c-2.966-8.342-23.357-33.553-23.357-33.553L163.321,232.108z"/>
				<path style="fill:#492F0A;" d="M174.806,284.797l-59.001,0.518c-2.365,0.021-4.299-1.88-4.32-4.245l-0.321-36.635
					c-0.021-2.365,1.88-4.299,4.245-4.32l59.001-0.518c2.365-0.021,4.299,1.88,4.32,4.245l0.321,36.635
					C179.071,282.843,177.171,284.777,174.806,284.797z"/>
				<g>
					<path style="fill:#351E02;" d="M182.04,284.415v-33.782c-0.023-2.653-10.941-10.869-13.593-10.846h-15.639
						c0.752,0.936,2.592,4.291,3.67,5.357c1.969,5.275,5.643,13.054,11.841,19.704c-0.148,2.039-0.183,4.09-0.046,6.052
						c0.579,8.244,0.202,14.1,0.009,16.284C170.863,287.082,182.063,287.017,182.04,284.415z"/>
					<path style="fill:#351E02;" d="M144.523,285.063l26.177-0.23C165.978,283.906,156.854,282.886,144.523,285.063z"/>
				</g>
				<path style="fill:#351E02;" d="M177.338,282.485l-57.959,0.509c-2.653,0.023-4.822-2.108-4.845-4.761l-0.312-35.593
					c-0.008-0.872,0.235-1.68,0.635-2.389c-2.129,0.508-3.708,2.423-3.688,4.705l0.312,35.593c0.023,2.653,2.193,4.784,4.845,4.761
					l57.958-0.508c1.781-0.016,3.309-1.01,4.126-2.457C178.065,282.428,177.708,282.482,177.338,282.485z"/>
				<path style="fill:#0F1121;" d="M194.33,238.936l-31.009-6.828c0,0,6.117,27.435,28.733,36.148
					c0.778,0.299,1.534,0.601,2.276,0.902V238.936z"/>
				<path style="fill:#0F1121;" d="M201.636,240.544c-10.446,5.629-20.108,13.419-20.108,13.419s0.232,3.927,1.136,9.043
					c2.758,2.086,5.874,3.894,9.39,5.249c22.616,8.712,30.216,18.537,30.216,18.537s2.134,12.59,4.255,25.007
					c1.723-2.545,2.263-6.899,2.16-15.554c-0.139-11.709-0.536-35.282-2.115-47.485c-1.612-2.045-2.632-3.307-2.632-3.307
					L201.636,240.544z"/>
				<path style="fill:#0F1121;" d="M123.793,298.381c0,0,2.966-14.645,8.157-15.942c5.19-1.298,10.01-1.483,13.718-0.927
					c3.708,0.556,11.198,0.862,11.198,0.862l-2.3,22.31c0,0-4.743,0.844-6.597,4.366c-1.854,3.522-7.863,13.8-7.863,13.8
					s2.595,16.498-12.976,13.718c-15.572-2.781-10.381-16.313-6.859-23.728c3.522-7.415,6.674-13.347,6.674-13.347L123.793,298.381z
					"/>
				<path style="fill:#21233A;" d="M180.561,240.264c0,0-4.264,13.162-3.522,23.728c0.741,10.566-0.087,17.24-0.087,17.24
					s-12.704-4.449-33.281,0c0,0,15.201,0.556,11.122,11.308c-4.078,10.752-10.381,20.947-10.381,20.947s21.689,1.668,34.294,0
					c12.605-1.668,12.049-1.668,17.611-1.668c5.561,0,7.971-2.224,12.791-15.015c4.82-12.791,15.201-40.782,16.313-50.051
					c1.112-9.269,0.742-12.235-12.976-12.235S180.561,240.264,180.561,240.264z"/>
				<g>
					<path style="fill:#0F1121;" d="M220.067,235.058c-0.008,1.378-0.169,2.978-0.392,4.835
						c-1.112,9.269-11.493,37.26-16.313,50.051c-4.82,12.791-1.246,16.809-6.807,16.809s-10.989-1.794-23.594-0.125
						c-7.262,0.961-17.533,0.815-24.941,0.518c-2.058,3.835-3.607,6.341-3.607,6.341s21.689,1.668,34.294,0
						c12.605-1.668,12.049-1.668,17.611-1.668c5.561,0,7.971-2.224,12.791-15.015c4.82-12.791,15.201-40.782,16.313-50.051
						C226.272,239.668,226.248,236.268,220.067,235.058z"/>
				</g>
				<path style="fill:#21233A;" d="M141.622,301.44c0,0,3.831-5.685,3.46-12.482c-0.371-6.797-14.319-5.967-14.319-5.967l0,0
					c-4.453,2.976-6.971,15.391-6.971,15.391l3.151,1.112c0,0-3.151,5.932-6.674,13.347c-3.522,7.415-8.713,20.947,6.859,23.728
					c1.516,0.271,2.854,0.354,4.045,0.292c3.827-5.982,3.446-16.693,5.298-21.703c2.513-6.797,7.199-11.988,7.199-11.988
					L141.622,301.44z"/>
				<path style="fill:#0F1121;" d="M223.938,245.455l-60.617-13.347c0,0,1.654,7.384,6.395,15.706
					c2.775,2.066,6.219,4.139,10.475,5.983c16.684,7.23,35.406,10.381,45.046,3.708c2.082-1.442,3.444-3.1,4.317-4.922
					C226.311,248.388,223.938,245.455,223.938,245.455z"/>
				<path style="fill-rule:evenodd;clip-rule:evenodd;fill:#F5C8AD;" d="M289.479,141.481c0,0,0.662-1.864,0.662-1.865
					c0.542-1.527-0.89-3.426-2.558-2.902c-0.978,0.308-1.78,1.376-2.222,2.255c-0.059,0.116-0.503,1.377-0.511,1.375
					c-1.711-0.354-3.692-0.305-4.685,0.133c-1.775,0.783-0.562,8.496-0.541,8.478c0.24,3.807,2.477,7.611,2.477,7.611
					s0.347,0.515,1.047,1.107c0.371,0.278,0.708,0.512,1.123,0.754c0.866,0.529,1.819,0.986,2.867,1.292
					c0.432,0.085,0.864,0.168,1.303,0.173l0.273,0.069c4.586,0.092,7.404-2.165,9.064-4.337c1.103,1.458,7.094-4.978,5.393-7.65
					c-1.701-2.672-4.888,0.124-4.888,0.124s4.041-3.496,1.397-5.782c-2.644-2.286-5.139,2.081-5.139,2.081s2.7-4.451-0.042-6.046
					C291.757,136.757,289.479,141.481,289.479,141.481z"/>
				<path style="fill-rule:evenodd;clip-rule:evenodd;fill:#F5C8AD;" d="M152.294,229.172c0,0,0.447,1.926,0.448,1.927
					c0.366,1.578,2.597,2.406,3.719,1.065c0.658-0.786,0.757-2.118,0.656-3.097c-0.013-0.13-0.319-1.43-0.311-1.434
					c1.632-0.625,3.274-1.734,3.874-2.638c1.073-1.617-4.107-7.458-4.115-7.432c-2.255-3.077-6.189-5.075-6.189-5.075
					s-0.57-0.246-1.478-0.367c-0.462-0.034-0.872-0.05-1.352-0.03c-1.014,0.022-2.063,0.15-3.112,0.458
					c-0.41,0.162-0.818,0.324-1.19,0.557l-0.267,0.089c-3.912,2.395-5.068,5.815-5.296,8.539c-1.715-0.633-3.291,8.017-0.418,9.35
					c2.873,1.334,4.05-2.74,4.05-2.74s-1.519,5.123,1.94,5.623c3.459,0.5,3.207-4.523,3.207-4.523s0.125,5.205,3.294,5.069
					C152.922,234.38,152.294,229.172,152.294,229.172z"/>
				<path style="fill:#F4A88C;" d="M150.375,212.489c0,0-0.57-0.246-1.478-0.368c-0.462-0.034-0.872-0.05-1.352-0.03
					c-1.014,0.022-2.063,0.15-3.112,0.458c-0.41,0.162-0.818,0.324-1.19,0.557l-0.267,0.089c-1.684,1.031-2.855,2.252-3.663,3.526
					c2.714,1.74,9.126,4.675,16.577,0.012C153.605,214.134,150.375,212.489,150.375,212.489z"/>
				<path style="fill:#492F0A;" d="M139.459,228.622l16.484-0.145c1.53-0.013,2.782,1.216,2.795,2.747l0.075,8.511l5.89-0.052
					l-0.104-11.81c-0.023-2.653-2.193-4.784-4.845-4.761l-24.176,0.212c-2.653,0.023-4.784,2.193-4.761,4.845l0.114,12.993
					c0.023,2.653,2.193,4.784,4.845,4.761l14.489-0.127c1.051-0.978,2.211-1.837,3.45-2.564l-14.128,0.124
					c-1.53,0.013-2.782-1.216-2.795-2.747l-0.081-9.193C136.698,229.887,137.928,228.635,139.459,228.622z"/>
				<path style="fill:#21233A;" d="M204.289,122.366c-1.298-0.742-16.313-9.083-29.66,0c-13.347,9.083-34.665,29.104-35.406,36.333
					s-1.298,53.944-1.298,53.944s8.898,7.971,19.464,0c0,0,1.298-36.519,5.19-40.226c3.893-3.708,7.044-8.342,7.044-8.342
					l26.138-30.958L204.289,122.366z"/>
				<path style="fill:#0F1121;" d="M197.825,130.516l-5.766-8.421c0,0-16.439-6.588-26.264,18.809
					c-4.857,12.554-5.68,27.052-5.766,39.964c0.688-4.237,1.528-7.478,2.55-8.45c3.893-3.708,7.044-8.342,7.044-8.342l26.138-30.957
					L197.825,130.516z"/>
				<path style="fill:#21233A;" d="M159.243,230.069c0,0,4.264,10.752,20.947,17.981s35.407,10.381,45.046,3.708
					c9.639-6.673,3.893-17.981,5.19-28.733c1.298-10.752,6.117-41.895,6.117-41.895s0.392-40.968-6.941-45.231
					c-7.333-4.264-11.705-6.295-11.705-6.295h-13.609l-6.918-10.104c0,0-16.439-6.588-26.264,18.809
					c-9.825,25.396-3.151,58.764-7.23,70.813C159.799,221.171,159.243,230.069,159.243,230.069z"/>
				<path style="fill:#0F1121;" d="M193.94,118.792c-1.274-0.107-2.698,1.229-3.783,1.737c-1.634,0.764-3.145,1.168-4.32,2.685
					c-4.421,5.709,1.388,12.765,6.758,14.802c5.483,2.08,11.753,1.982,17.505,1.409c2.821-0.281,5.628-0.718,8.402-1.299
					c1.482-0.31,2.512-0.6,3.74-1.53c1.093-0.828,3.211-3.063,4.765-2.185c-5.757-3.25-9.109-4.807-9.109-4.807h-13.609
					l-6.918-10.104C197.371,119.5,196.052,118.973,193.94,118.792z"/>
				<path style="fill:#0F1121;" d="M233.536,143.727c-1.088-0.463-2.181-0.71-3.273-0.658c0,0-12.415,1.61-11.303,15.623
					c0.732,9.226,8.859,24.935,15.517,35.991c1.145-7.599,2.067-13.553,2.067-13.553S236.776,156.848,233.536,143.727z"/>
				<path style="fill:#21233A;" d="M228.387,137.567c0,0-12.066,3.337-8.999,17.055c3.067,13.718,25.126,39.855,29.946,44.119
					c4.82,4.264,31.884-16.128,43.934-35.036c0,0-2.41-11.122-16.313-11.308c0,0-13.347,15.386-17.611,18.723
					C259.345,171.12,240.993,135.157,228.387,137.567z"/>
				<path style="fill:#F4A88C;" d="M199.741,119.215c0,0-8.366,11.988,6.34,12.729c14.706,0.742,11.281-1.987,13.055-9.088
					c1.775-7.101-6.382-2.652-6.382-2.652L199.741,119.215z"/>
				<g>
					<g>
						<path style="fill:#F5C8AD;" d="M231.111,99.416c0,0,3.913,3.748,2.598,5.705c-1.315,1.957-4.106,3.462-4.106,3.462
							l0.395-8.387L231.111,99.416z"/>
						<path style="fill:#F5C8AD;" d="M231.113,97.181c0,0-0.8,9.29-0.008,16.429c0.792,7.139-1.901,11.966-10.647,10.556
							c-8.746-1.41-20.921-8.5-20.715-9.679c0.206-1.179,1.956-15.893,10.39-19.084c8.433-3.19,16.71-10.854,16.71-10.854
							l1.508,2.273C230.379,89.881,231.349,93.519,231.113,97.181L231.113,97.181z"/>
					</g>
					<g>
						<path style="fill:#60433A;" d="M232.651,78.185c-2.668-20.144-26.941-18.537-18.908-9.887c2.341,2.521-9.347-0.04-14.83,3.584
							c-6.333,4.185-6.581,10.628-6.581,10.628s-9.509,5.041-8.453,16.796c0.5,4.559,1.894,8.068,1.894,8.068
							c7.922,27.637,34.685,16.791,34.685,16.791s-3.903-3.527-5.48-7.12c-1.576-3.593,0.235-7.069,2.943-7.543
							c2.708-0.474,4.885,6.251,6.563,4.576c1.679-1.675,1.15-5.875-0.958-9.938c-1.159-2.235,0.663-4.955,2.538-6.951
							c2.31-2.458,4.065-5.38,4.986-8.625C232.046,85.06,232.996,80.791,232.651,78.185z"/>
						<path style="fill:#513129;" d="M212.407,64.036c-0.578,1.052-0.293,2.509,1.336,4.263c1.335,1.438-1.892,1.224-5.929,1.445
							c13.841,0.951,19.028,6.031,16.186,0.779C221.188,65.327,212.673,63.923,212.407,64.036z"/>
					</g>
				</g>
				<path style="fill:#F5C8AD;" d="M137.082,221.878c0,0,4.344-2.222,4.294,1.676c-0.05,3.898-0.064,4.792-0.064,4.792l-3.568,2.917
					c0,0-1.812,0.337-1.963-2.786C135.629,225.354,135.586,222.851,137.082,221.878z"/>
				<path style="fill:#F5C8AD;" d="M142.429,221.878c0,0,4.344-2.222,4.294,1.676c-0.05,3.898-0.265,5.891-0.265,5.891l-3.368,1.817
					c0,0-1.812,0.337-1.963-2.786C140.976,225.354,140.934,222.851,142.429,221.878z"/>
				<path style="fill:#F5C8AD;" d="M147.796,221.878c0,0,5.06-2.665,5.01,1.233s-0.416,6.273-0.416,6.273l-3.933,1.878
					c0,0-1.812,0.337-1.963-2.786C146.343,225.354,146.301,222.851,147.796,221.878z"/>
				<path style="fill:#F5C8AD;" d="M153.763,221.878c0,0,2.905-2.665,2.855,1.233c-0.05,3.898,0.4,6.24,0.4,6.24l-2.593,1.912
					c0,0-1.812,0.337-1.963-2.786C152.31,225.354,152.268,222.851,153.763,221.878z"/>
			</g>
		</g>
	</g>
</g>
<g id="DESIGNED_BY_FREEPIK">
	<g id="XMLID_29_">
		<g id="XMLID_319_">
			<g id="XMLID_338_">
				<path id="XMLID_346_" style="fill:#1C1C1B;" d="M260.104,465.188c-0.432,0.443-0.803,0.931-1.108,1.453l-0.465-0.241
					c-0.067-0.298-0.349-0.503-0.659-0.466c-0.331,0.039-0.568,0.339-0.529,0.67c0.039,0.331,0.339,0.568,0.67,0.529
					c0.066-0.008,0.127-0.026,0.184-0.052l0.451,0.234c-0.251,0.554-0.433,1.139-0.539,1.744l0.747,0.132
					c0.23-1.306,0.85-2.507,1.792-3.473L260.104,465.188z"/>
				<path id="XMLID_345_" style="fill:#1C1C1B;" d="M265.592,462.886c-0.171,0-0.341,0.006-0.51,0.017l-0.074-0.626
					c0.188-0.149,0.296-0.389,0.266-0.645c-0.046-0.393-0.402-0.674-0.795-0.628c-0.393,0.046-0.674,0.402-0.628,0.795
					c0.03,0.254,0.189,0.461,0.404,0.564l0.074,0.624c-0.714,0.116-1.403,0.332-2.06,0.646l0.327,0.684
					c0.934-0.447,1.942-0.673,2.995-0.673c0.496,0,0.993,0.053,1.475,0.158l0.161-0.741
					C266.692,462.945,266.142,462.886,265.592,462.886z"/>
				<path id="XMLID_344_" style="fill:#1C1C1B;" d="M272.194,465.433c0.331-0.04,0.566-0.342,0.526-0.672
					c-0.04-0.331-0.341-0.566-0.672-0.526c-0.309,0.038-0.535,0.304-0.53,0.609l-0.416,0.363c-0.418-0.43-0.889-0.813-1.408-1.139
					l-0.404,0.641c1.134,0.715,2.021,1.726,2.563,2.925l0.69-0.313c-0.251-0.554-0.567-1.072-0.942-1.545l0.402-0.351
					C272.065,465.438,272.129,465.441,272.194,465.433z"/>
				<path id="XMLID_343_" style="fill:#1C1C1B;" d="M265.044,473.095c-0.386,0.023-0.775,0.035-1.157,0.035
					c-0.88,0-1.733-0.061-2.478-0.179c-0.39-0.062-0.846-0.155-1.27-0.292c1.046,1.861,3.069,3.125,5.388,3.125
					c2.855,0,5.262-1.916,5.95-4.504c-0.682,0.449-1.505,0.825-2.459,1.123C267.839,472.77,266.463,473.009,265.044,473.095z"/>
				<path id="XMLID_339_" style="fill:#1C1C1B;" d="M265.592,464.402c-3.352,0-6.08,2.666-6.08,5.943
					c0,0.426,0.046,0.849,0.137,1.261c0.673,0.483,2.706,0.89,5.348,0.731c2.879-0.173,5.297-0.957,6.672-2.159
					c-0.006-0.195-0.021-0.39-0.045-0.582C271.244,466.636,268.65,464.402,265.592,464.402z M263.432,470.917
					c-1.02,0-1.85-0.83-1.85-1.85c0-1.02,0.83-1.85,1.85-1.85c1.02,0,1.85,0.83,1.85,1.85
					C265.282,470.087,264.452,470.917,263.432,470.917z M268.17,470.009c-0.75,0-1.36-0.61-1.36-1.36c0-0.75,0.61-1.361,1.36-1.361
					c0.75,0,1.361,0.61,1.361,1.361C269.53,469.399,268.92,470.009,268.17,470.009z"/>
			</g>
			<path id="XMLID_336_" style="fill:#1C1C1B;" d="M281.595,466.27c-0.295-0.116-0.805-0.309-1.382-0.237
				c-0.551,0.069-0.844,0.341-0.844,1.007v0.866h2.228v1.717h-2.228v5.455h-1.932v-5.455h-1.34v-1.717h1.34v-0.888
				c0-1.68,0.896-2.783,2.568-2.783c0.643,0,1.157,0.122,1.59,0.308L281.595,466.27z"/>
			<path id="XMLID_334_" style="fill:#1C1C1B;" d="M286.298,469.602c-0.177-0.03-0.358-0.046-0.526-0.046
				c-0.896,0-1.51,0.548-1.51,1.613v3.908h-1.932v-7.172h1.873v0.785c0.451-0.673,1.14-0.977,2.021-0.977
				c0.414,0,0.848,0.128,1.094,0.337L286.298,469.602z"/>
			<path id="XMLID_331_" style="fill:#1C1C1B;" d="M293.965,471.48c0,0.222-0.015,0.489-0.037,0.651h-5.085
				c0.207,1.036,0.933,1.488,1.843,1.488c0.622,0,1.295-0.252,1.813-0.688l1.133,1.243c-0.814,0.748-1.85,1.088-3.057,1.088
				c-2.198,0-3.723-1.495-3.723-3.753c0-2.258,1.48-3.797,3.627-3.797C292.544,467.712,293.958,469.244,293.965,471.48z
				 M288.851,470.814h3.175c-0.177-0.918-0.733-1.436-1.562-1.436C289.554,469.378,289.021,469.925,288.851,470.814z"/>
			<path id="XMLID_328_" style="fill:#1C1C1B;" d="M301.618,471.48c0,0.222-0.015,0.489-0.037,0.651h-5.085
				c0.207,1.036,0.933,1.488,1.843,1.488c0.622,0,1.295-0.252,1.814-0.688l1.132,1.243c-0.814,0.748-1.85,1.088-3.057,1.088
				c-2.198,0-3.723-1.495-3.723-3.753c0-2.258,1.48-3.797,3.627-3.797C300.197,467.712,301.611,469.244,301.618,471.48z
				 M296.504,470.814h3.175c-0.178-0.918-0.733-1.436-1.562-1.436C297.207,469.378,296.674,469.925,296.504,470.814z"/>
			<path id="XMLID_325_" style="fill:#1C1C1B;" d="M309.964,471.487c0,2.154-1.495,3.775-3.471,3.775
				c-0.962,0-1.643-0.378-2.109-0.933v3.708h-1.924v-10.133h1.887v0.792c0.466-0.585,1.155-0.984,2.139-0.984
				C308.469,467.712,309.964,469.333,309.964,471.487z M304.287,471.487c0,1.132,0.748,1.976,1.843,1.976
				c1.14,0,1.85-0.881,1.85-1.976c0-1.095-0.71-1.976-1.85-1.976C305.035,469.511,304.287,470.355,304.287,471.487z"/>
			<path id="XMLID_322_" style="fill:#1C1C1B;" d="M313.068,465.559c0,0.696-0.54,1.229-1.236,1.229
				c-0.696,0-1.229-0.533-1.229-1.229c0-0.696,0.533-1.243,1.229-1.243C312.527,464.315,313.068,464.863,313.068,465.559z
				 M312.809,475.077h-1.932v-7.172h1.932V475.077z"/>
			<path id="XMLID_320_" style="fill:#1C1C1B;" d="M316.032,470.458l2.701-2.554h2.368l-3.479,3.375l3.501,3.797h-2.376
				l-2.716-2.901v2.901H314.1v-10.658h1.932V470.458z"/>
		</g>
		<g id="XMLID_30_">
			<path id="XMLID_55_" style="fill:#1C1C1B;" d="M184.412,475.012v-1.055c-0.527,0.718-1.391,1.23-2.387,1.23
				c-1.846,0-3.149-1.406-3.149-3.706c0-2.256,1.289-3.721,3.149-3.721c0.952,0,1.816,0.469,2.387,1.245v-3.765h1.099v9.77H184.412z
				 M184.412,473.093v-3.208c-0.395-0.615-1.245-1.143-2.124-1.143c-1.421,0-2.27,1.172-2.27,2.739c0,1.567,0.85,2.724,2.27,2.724
				C183.168,474.206,184.017,473.708,184.412,473.093z"/>
			<path id="XMLID_52_" style="fill:#1C1C1B;" d="M186.932,471.467c0-2.051,1.465-3.706,3.486-3.706c2.139,0,3.398,1.67,3.398,3.794
				v0.279h-5.727c0.088,1.333,1.025,2.446,2.549,2.446c0.805,0,1.626-0.322,2.182-0.893l0.527,0.718
				c-0.703,0.703-1.655,1.084-2.812,1.084C188.44,475.188,186.932,473.679,186.932,471.467z M190.403,468.669
				c-1.509,0-2.256,1.274-2.314,2.358h4.643C192.718,469.973,192.015,468.669,190.403,468.669z"/>
			<path id="XMLID_50_" style="fill:#1C1C1B;" d="M194.607,474.074l0.571-0.791c0.469,0.542,1.362,1.011,2.329,1.011
				c1.084,0,1.67-0.513,1.67-1.216c0-1.714-4.38-0.659-4.38-3.281c0-1.098,0.952-2.036,2.636-2.036c1.201,0,2.051,0.454,2.622,1.025
				l-0.513,0.762c-0.424-0.513-1.201-0.894-2.109-0.894c-0.967,0-1.567,0.483-1.567,1.113c0,1.552,4.38,0.527,4.38,3.281
				c0,1.187-0.952,2.138-2.783,2.138C196.306,475.188,195.325,474.836,194.607,474.074z"/>
			<path id="XMLID_47_" style="fill:#1C1C1B;" d="M201.477,466.194c0-0.41,0.337-0.747,0.732-0.747c0.41,0,0.747,0.337,0.747,0.747
				c0,0.41-0.337,0.732-0.747,0.732C201.814,466.926,201.477,466.604,201.477,466.194z M201.667,475.012v-7.075h1.099v7.075H201.667
				z"/>
			<path id="XMLID_44_" style="fill:#1C1C1B;" d="M204.582,476.828l0.556-0.82c0.586,0.703,1.289,0.967,2.3,0.967
				c1.172,0,2.27-0.571,2.27-2.124v-1.011c-0.513,0.718-1.377,1.26-2.373,1.26c-1.845,0-3.149-1.377-3.149-3.662
				c0-2.27,1.289-3.676,3.149-3.676c0.952,0,1.802,0.469,2.373,1.245v-1.069h1.098v6.87c0,2.344-1.641,3.076-3.369,3.076
				C206.237,477.883,205.417,477.648,204.582,476.828z M209.709,472.976v-3.091c-0.381-0.615-1.23-1.143-2.109-1.143
				c-1.421,0-2.27,1.128-2.27,2.695c0,1.553,0.849,2.695,2.27,2.695C208.478,474.133,209.328,473.591,209.709,472.976z"/>
			<path id="XMLID_42_" style="fill:#1C1C1B;" d="M217.413,475.012v-4.629c0-1.245-0.63-1.641-1.582-1.641
				c-0.865,0-1.685,0.527-2.095,1.099v5.17h-1.099v-7.075h1.099v1.025c0.498-0.586,1.464-1.201,2.519-1.201
				c1.48,0,2.256,0.747,2.256,2.285v4.966H217.413z"/>
			<path id="XMLID_39_" style="fill:#1C1C1B;" d="M219.932,471.467c0-2.051,1.465-3.706,3.486-3.706c2.139,0,3.398,1.67,3.398,3.794
				v0.279h-5.727c0.088,1.333,1.025,2.446,2.549,2.446c0.806,0,1.626-0.322,2.183-0.893l0.527,0.718
				c-0.703,0.703-1.655,1.084-2.812,1.084C221.441,475.188,219.932,473.679,219.932,471.467z M223.404,468.669
				c-1.509,0-2.256,1.274-2.314,2.358h4.643C225.718,469.973,225.015,468.669,223.404,468.669z"/>
			<path id="XMLID_36_" style="fill:#1C1C1B;" d="M233.35,475.012v-1.055c-0.527,0.718-1.392,1.23-2.388,1.23
				c-1.846,0-3.149-1.406-3.149-3.706c0-2.256,1.289-3.721,3.149-3.721c0.952,0,1.817,0.469,2.388,1.245v-3.765h1.098v9.77H233.35z
				 M233.35,473.093v-3.208c-0.396-0.615-1.245-1.143-2.124-1.143c-1.421,0-2.27,1.172-2.27,2.739c0,1.567,0.849,2.724,2.27,2.724
				C232.105,474.206,232.954,473.708,233.35,473.093z"/>
			<path id="XMLID_33_" style="fill:#1C1C1B;" d="M239.692,475.012v-9.77h1.098v3.765c0.572-0.776,1.421-1.245,2.388-1.245
				c1.845,0,3.149,1.465,3.149,3.721c0,2.299-1.304,3.706-3.149,3.706c-0.996,0-1.86-0.513-2.388-1.23v1.055H239.692z
				 M242.9,474.206c1.436,0,2.285-1.157,2.285-2.724c0-1.568-0.85-2.739-2.285-2.739c-0.864,0-1.728,0.527-2.109,1.143v3.208
				C241.171,473.708,242.036,474.206,242.9,474.206z"/>
			<path id="XMLID_31_" style="fill:#1C1C1B;" d="M247.528,476.784c0.161,0.073,0.425,0.117,0.601,0.117
				c0.483,0,0.805-0.161,1.055-0.747l0.469-1.069l-2.959-7.148h1.187l2.358,5.801l2.344-5.801h1.201l-3.545,8.51
				c-0.425,1.025-1.143,1.421-2.08,1.435c-0.234,0-0.601-0.044-0.805-0.103L247.528,476.784z"/>
		</g>
	</g>
</g>
</svg>
