<?xml version="1.0" encoding="utf-8"?>
<!-- Generator: Adobe Illustrator 27.5.0, SVG Export Plug-In . SVG Version: 6.00 Build 0)  -->
<svg version="1.1" xmlns="http://www.w3.org/2000/svg" xmlns:xlink="http://www.w3.org/1999/xlink" x="0px" y="0px"
	 viewBox="0 0 500 500" style="enable-background:new 0 0 500 500;" xml:space="preserve">
<g id="Background">
	<rect style="fill:#FAFAFA;" width="500" height="500"/>
</g>
<g id="Objects">
	<g>
		<path style="fill:#C0CA33;" d="M402.277,181.296h-77.973c-0.504,0-0.996,0.044-1.483,0.107c-5.61-0.717-9.949-5.499-9.949-11.304
			c0-6.3,5.107-11.407,11.407-11.407h47.542c-25.642-38.563-69.481-63.984-119.263-63.984c-79.047,0-143.127,64.08-143.127,143.127
			c0,43.584,19.487,82.612,50.216,108.863h-26.576c-6.3,0-11.407,5.107-11.407,11.407c0,6.3,5.107,11.407,11.407,11.407h63.314
			c17.247,7.367,36.232,11.449,56.173,11.449c79.047,0,143.127-64.08,143.127-143.127c0-11.619-1.395-22.91-4.01-33.725h10.602
			c6.3,0,11.407-5.107,11.407-11.407S408.577,181.296,402.277,181.296z"/>
		<path style="fill:#C0CA33;" d="M434.367,181.296h-2.164c-6.3,0-11.407,5.107-11.407,11.407s5.107,11.407,11.407,11.407h2.164
			c6.3,0,11.407-5.107,11.407-11.407S440.667,181.296,434.367,181.296z"/>
		
			<ellipse transform="matrix(0.9869 -0.161 0.161 0.9869 -51.0689 21.1798)" style="fill:#C0CA33;" cx="105.12" cy="325.626" rx="17.247" ry="17.247"/>
	</g>
	<path style="opacity:0.1;" d="M285.502,288.657l0.249-39.735l22.917-3.772c5.358-0.882,8.987-5.94,8.105-11.298
		c-0.189-1.148-0.579-2.209-1.113-3.171l-29.379-66.244l0-0.081l-19.254-8.839c-1.974-0.906-4.024-1.623-6.122-2.158l0-0.003
		c-0.834-1.35-4.821-2.119-4.919-2.138V147.4v-1.41c20.386-3.522,25.291-17.381,25.447-34.259c0.003,0,0.006,0,0.009,0
		c5.476,0,9.916-4.44,9.916-9.916c0-0.621-0.064-1.226-0.173-1.815c-12.289-3.438-25.24-5.291-38.626-5.291
		c-18.561,0-36.296,3.534-52.571,9.964c1.227,4.083,5.011,7.059,9.494,7.059c0.005,0,0.01-0.001,0.015-0.001
		c0.046,4.28,0.425,8.077,1.118,11.414c0.444,2.136,1.012,4.091,1.695,5.878c0.228,0.596,0.468,1.172,0.721,1.731
		c4.087,9.038,11.406,13.326,20.356,15.078v3.384v2.001c0,0-4.083,0.773-4.928,2.14l0,0.003c-2.098,0.535-4.149,1.251-6.122,2.158
		l-19.254,8.839l0.001,0.081l-18.457,41.615h-22.461v39.861h-1.492c-3.149,0-5.702,2.553-5.702,5.702v10.518
		c0,3.149,2.553,5.702,5.702,5.702h1.492v2.548h0v10.48h41.76l0.056,7.796h5.793l2.442,86.528c7.976,2.34,16.24,4.004,24.728,4.926
		l8.519-96.979l8.592,97.811c8.378-0.086,16.584-0.887,24.559-2.354l2.538-89.932H285.502z M285.981,212.264l6.899,15.556
		l-7.004,1.153L285.981,212.264z"/>
	<path style="opacity:0.1;" d="M394.892,252.944c-17.029-28.059-47.869-46.806-83.089-46.806c-53.64,0-97.124,43.484-97.124,97.124
		c0,31.767,15.255,59.968,38.834,77.689C327.024,380.469,387.376,324.578,394.892,252.944z"/>
	<circle style="opacity:0.1;" cx="186.275" cy="296.485" r="42.235"/>
	<g>
		<ellipse style="opacity:0.2;fill:#231F20;" cx="250.633" cy="433.749" rx="78.187" ry="12.131"/>
		<path style="fill:#1C1C1C;" d="M218.668,415.436c0,0-21.061,5.768-25.792,8.826c-3.569,2.307-3.617,6.533-3.426,8.469
			c0.058,0.582,0.556,1.018,1.141,1.018h31.388c0.257,0,0.506-0.086,0.708-0.244l4.177-3.274v2.371c0,0.634,0.514,1.147,1.147,1.147
			h9.399c0.634,0,1.147-0.514,1.147-1.147v-17.166H218.668z"/>
		
			<rect x="157.68" y="192.117" transform="matrix(0.4054 -0.9141 0.9141 0.4054 -65.6455 302.9727)" style="fill:#094C8C;" width="84.797" height="19.664"/>
		
			<rect x="260.822" y="186.592" transform="matrix(-0.4054 -0.9141 0.9141 -0.4054 238.0992 547.7153)" style="fill:#094C8C;" width="72.708" height="19.664"/>
		<polygon style="fill:#0B5AA5;" points="250.633,262.663 214.653,262.663 214.653,273.145 218.668,415.436 238.557,415.436 
			250.633,277.962 262.709,415.436 282.598,415.436 286.613,273.145 286.613,262.663 		"/>
		<path style="fill:#FFFFFF;" d="M274.626,262.663h-59.974v-89.1c0-14.512,11.764-23.94,26.277-23.94h19.407
			c14.512,0,26.277,9.427,26.277,23.94L274.626,262.663z"/>
		<path style="fill:#ECC19C;" d="M248.881,152.893l-1.092-1.195c-6.241,0-9.233,4.701-9.233-1.54v-28.115h22.6v28.115
			C261.157,156.399,255.122,152.893,248.881,152.893z"/>
		<path style="fill:#CF9E76;" d="M238.557,144.045c3.677,0.439,7.906,0.686,9.809,0.62c7.08-0.248,9.066-0.992,12.791-2.436v-6.842
			h-22.6V144.045z"/>
		
			<ellipse transform="matrix(0.0708 -0.9975 0.9975 0.0708 103.0556 303.9172)" style="fill:#ECC19C;" cx="214.653" cy="96.644" rx="9.916" ry="9.916"/>
		
			<ellipse transform="matrix(0.1219 -0.9925 0.9925 0.1219 155.7533 369.3399)" style="fill:#DFB28B;" cx="286.613" cy="96.644" rx="9.916" ry="9.916"/>
		<path style="fill:#ECC19C;" d="M250.633,141.69L250.633,141.69c-19.871,0-35.98-6.304-35.98-35.98V51.315l17.402-2.864l2.55-1.133
			l52.008,3.997v54.395C286.613,125.582,280.362,141.491,250.633,141.69z"/>
		<path style="fill:#8B372F;" d="M235.89,94.389c0,2.945-1.852,5.333-4.137,5.333c-2.285,0-4.137-2.388-4.137-5.333
			c0-2.945,1.852-5.333,4.137-5.333C234.038,89.055,235.89,91.443,235.89,94.389z"/>
		<path style="fill:#8B372F;" d="M272.937,94.389c0,2.945-1.852,5.333-4.137,5.333c-2.285,0-4.137-2.388-4.137-5.333
			c0-2.945,1.852-5.333,4.137-5.333C271.085,89.055,272.937,91.443,272.937,94.389z"/>
		<path style="fill:#FFFFFF;" d="M269.147,91.953c0,0.877-0.71,1.587-1.587,1.587c-0.876,0-1.587-0.711-1.587-1.587
			c0-0.876,0.711-1.587,1.587-1.587C268.437,90.366,269.147,91.076,269.147,91.953z"/>
		<g>
			<path style="fill:#8B372F;" d="M238.893,85.595c0,0-0.221-0.245-0.631-0.63c-0.409-0.385-1.008-0.911-1.77-1.442
				c-0.766-0.524-1.697-1.046-2.748-1.38c-0.522-0.175-1.078-0.28-1.642-0.345c-0.283-0.031-0.569-0.048-0.857-0.049l-0.404,0.011
				l-0.48,0.044c-0.664,0.031-1.247,0.11-1.818,0.195c-0.577,0.125-1.163,0.212-1.702,0.382c-0.541,0.16-1.064,0.331-1.539,0.54
				c-0.245,0.093-0.468,0.211-0.685,0.325c-0.227,0.101-0.432,0.22-0.628,0.339c-1.586,0.936-2.396,2.011-2.396,2.011
				s0.062-0.328,0.322-0.854c0.259-0.521,0.724-1.244,1.476-1.94c0.368-0.355,0.806-0.707,1.31-1.009
				c0.494-0.322,1.051-0.609,1.65-0.835c0.597-0.241,1.228-0.432,1.888-0.575c0.679-0.12,1.368-0.24,1.992-0.268l0.482-0.029
				l0.559-0.001c0.353,0.013,0.704,0.044,1.049,0.093c0.692,0.104,1.349,0.323,1.952,0.58c1.208,0.531,2.164,1.3,2.849,2.042
				c0.695,0.739,1.133,1.455,1.403,1.966C238.794,85.28,238.893,85.595,238.893,85.595z"/>
		</g>
		<g>
			<path style="fill:#8B372F;" d="M260.15,85.595c0,0,0.099-0.315,0.366-0.83c0.27-0.511,0.708-1.227,1.403-1.966
				c0.686-0.742,1.642-1.511,2.849-2.042c0.604-0.257,1.261-0.476,1.952-0.58c0.346-0.049,0.697-0.08,1.049-0.093l0.559,0.001
				l0.482,0.029c0.623,0.027,1.312,0.148,1.992,0.268c0.66,0.143,1.291,0.334,1.888,0.575c0.599,0.226,1.156,0.513,1.65,0.835
				c0.504,0.302,0.942,0.654,1.31,1.009c0.752,0.696,1.217,1.419,1.476,1.94c0.26,0.526,0.322,0.854,0.322,0.854
				s-0.81-1.076-2.396-2.011c-0.197-0.118-0.402-0.238-0.628-0.339c-0.217-0.114-0.441-0.231-0.685-0.325
				c-0.475-0.209-0.997-0.38-1.539-0.54c-0.539-0.169-1.125-0.256-1.702-0.382c-0.571-0.084-1.153-0.163-1.818-0.195l-0.48-0.044
				l-0.404-0.011c-0.288,0.002-0.574,0.019-0.857,0.049c-0.564,0.065-1.12,0.17-1.642,0.345c-1.05,0.334-1.982,0.857-2.748,1.381
				c-0.762,0.531-1.361,1.056-1.77,1.441C260.37,85.35,260.15,85.595,260.15,85.595z"/>
		</g>
		<path style="fill:#094C8C;" d="M241.936,262.663l-0.698,19.36c-0.094,2.595-2.224,4.65-4.821,4.65h-21.334v-3.187L241.936,262.663
			z"/>
		<path style="fill:#094C8C;" d="M259.304,262.663l0.698,19.36c0.094,2.595,2.224,4.65,4.821,4.65h21.334l0.126-3.187
			L259.304,262.663z"/>
		<path style="fill:#0D68BE;" d="M238.557,147.286l5.702,98.379l-4.534,33.196c-0.362,2.65-2.626,4.626-5.301,4.626h-25.272
			l-0.899-124.301l19.254-8.839C231.002,148.741,234.733,147.708,238.557,147.286L238.557,147.286z"/>
		<path style="fill:#094C8C;" d="M233.629,148.186l-2.454,24.677l9.752,14.99l-2.37-41.807
			C238.557,146.046,234.474,146.82,233.629,148.186z"/>
		<path style="fill:#0D68BE;" d="M261.148,147.286l-5.702,98.379l4.534,33.196c0.362,2.65,2.626,4.626,5.301,4.626h25.392
			l0.779-124.301l-19.254-8.839C268.702,148.741,264.971,147.708,261.148,147.286L261.148,147.286z"/>
		<path style="fill:#094C8C;" d="M266.076,148.186l2.454,24.677l-9.752,14.99l2.37-41.807
			C261.148,146.046,265.231,146.82,266.076,148.186z"/>
		<polygon style="fill:#094C8C;" points="228.51,415.436 231.934,285.611 215.084,286.673 218.668,415.436 		"/>
		<path style="fill:#094C8C;" d="M250.633,277.962c0,0,12.891,2.762,16.574,24.86c3.683,22.098,5.524,112.615,5.524,112.615h-10.022
			L250.633,277.962z"/>
		<polygon style="fill:#1C1C1C;" points="241.443,266.275 258.262,266.275 257.768,262.663 241.936,262.663 		"/>
		<path style="fill:#FFFFFF;" d="M232.101,91.953c0,0.877-0.711,1.587-1.587,1.587c-0.877,0-1.587-0.711-1.587-1.587
			c0-0.876,0.71-1.587,1.587-1.587C231.391,90.366,232.101,91.076,232.101,91.953z"/>
		<polygon style="fill:#094C8C;" points="282.823,248.214 264.125,248.214 264.125,252.889 273.474,255.332 282.823,252.782 		"/>
		<path style="fill:#6191BF;" d="M270.289,153.873c0,0,0.669-1.151,3.471-0.035c2.947,1.174,11.544,5.568,12.874,6.663
			c1.5,1.234,1.449,3.408-0.188,3.583c-1.638,0.175-14.282-5.822-15.585-7.047C269.097,155.378,270.289,153.873,270.289,153.873z"/>
		<path style="fill:#6191BF;" d="M229.983,153.873c0,0-0.669-1.151-3.471-0.035c-2.947,1.174-11.544,5.568-12.874,6.663
			c-1.5,1.234-1.449,3.408,0.188,3.583c1.638,0.175,14.282-5.822,15.585-7.047C231.175,155.378,229.983,153.873,229.983,153.873z"/>
		<path style="fill:#A76531;" d="M214.653,86.728L214.653,86.728c0-8.001,2.633-15.779,7.493-22.135l5.471-7.155l0,0
			c12.164,10.113,26.66,17.03,42.174,20.122l11.12,2.217c3.315,0.661,5.702,3.57,5.702,6.95l0,0v6.812l2.429-3.483
			c3.088-4.428,4.743-9.696,4.743-15.094V61.466c0,0,5.123-2.022,5.487-4.209c0.364-2.188-4.359,1.599-21.823-17.166
			c-14.231-15.292-33.773-10.312-41.559-5.58s-10.15,10.433-10.15,10.433s-10.635-0.137-15.618,8.249
			c-4.983,8.386-5.29,18.409-2.669,27.722c1.825,6.483,7.199,18.768,7.199,18.768V86.728z"/>
		<path style="fill:#A76531;" d="M292.74,59.904c0,0,2.517,1.82,4.701,2.093c2.184,0.273,2.366,1.246,0.91,2.17
			c-1.456,0.924-4.822,0.469-5.368,0.378C292.437,64.454,292.74,59.904,292.74,59.904z"/>
		<polygon style="fill:#E2413E;" points="242.876,158.007 244.817,162.525 252.794,162.525 254.886,158.007 249.063,152.026 		"/>
		<polygon style="fill:#B5292A;" points="244.817,162.525 241.603,237.284 250.246,244.957 258.465,237.163 252.794,162.525 		"/>
		<polygon style="fill:#0B5AA5;" points="233.297,176.126 229.81,215.386 244.258,245.664 240.927,187.854 		"/>
		<polygon style="fill:#0B5AA5;" points="266.407,176.126 269.895,215.386 255.446,245.664 258.778,187.854 		"/>
		<rect x="167.335" y="200.881" style="fill:#FAFAFA;" width="97.823" height="74.809"/>
		<path style="opacity:0.2;fill:#231F20;" d="M169.24,243.289h-1.905v21.921h1.905c3.149,0,5.702-2.553,5.702-5.702v-10.518
			C174.941,245.842,172.389,243.289,169.24,243.289z"/>
		<path style="fill:#2D2D2D;" d="M204.708,425.264c0.052,0.991-2.275,1.918-5.197,2.07c-2.922,0.153-5.332-0.527-5.384-1.517
			c-0.052-0.991,2.275-1.917,5.197-2.07C202.246,423.594,204.656,424.274,204.708,425.264z"/>
		<path style="fill:#151515;" d="M189.436,430.565c-0.064,0.843-0.042,1.606,0.014,2.167c0.058,0.582,0.556,1.018,1.141,1.018
			h31.388c0.257,0,0.506-0.086,0.708-0.244l4.177-3.274v2.371c0,0.634,0.514,1.147,1.147,1.147h9.399
			c0.634,0,1.148-0.514,1.148-1.147v-13.046l-9.383,5.748c-5.616,3.441-12.074,5.261-18.661,5.261H189.436z"/>
		<path style="fill:#1C1C1C;" d="M282.524,415.436c0,0,21.061,5.768,25.792,8.826c3.569,2.307,3.617,6.533,3.426,8.469
			c-0.058,0.582-0.556,1.018-1.141,1.018h-31.388c-0.257,0-0.506-0.086-0.708-0.244l-4.177-3.274v2.371
			c0,0.634-0.514,1.147-1.147,1.147h-9.399c-0.634,0-1.147-0.514-1.147-1.147v-17.166H282.524z"/>
		<path style="fill:#2D2D2D;" d="M296.484,425.264c-0.052,0.991,2.275,1.918,5.197,2.07c2.922,0.153,5.332-0.527,5.384-1.517
			c0.052-0.991-2.275-1.917-5.197-2.07C298.947,423.594,296.536,424.274,296.484,425.264z"/>
		<path style="fill:#151515;" d="M311.756,430.565c0.064,0.843,0.042,1.606-0.014,2.167c-0.058,0.582-0.556,1.018-1.141,1.018
			h-31.388c-0.257,0-0.506-0.086-0.708-0.244l-4.177-3.274v2.371c0,0.634-0.514,1.147-1.147,1.147h-9.399
			c-0.634,0-1.147-0.514-1.147-1.147v-13.046l9.383,5.748c5.616,3.441,12.074,5.261,18.661,5.261H311.756z"/>
		<path style="fill:#DFB28B;" d="M250.633,141.69c4.367-0.029,8.215-0.406,11.623-1.076c-13.069-1.257-27.53-3.92-34.639-9.539
			c-10.471-8.276-12.605-27.178-12.964-37.427v12.062C214.653,135.387,230.761,141.69,250.633,141.69z"/>
		<path style="opacity:0.2;fill:#231F20;" d="M265.158,230.246l-0.519,0.085c-5.358,0.882-8.987,5.94-8.105,11.298
			c0.733,4.451,4.35,7.699,8.624,8.169V230.246z"/>
		<path style="fill:#094C8C;" d="M310.646,220.576l-36.832,6.062l4.359,19.211l35.666-5.87c5.358-0.882,8.987-5.94,8.105-11.298
			C321.063,223.323,316.004,219.695,310.646,220.576z"/>
		<path style="fill:#8D562A;" d="M227.617,57.439L227.617,57.439L227.617,57.439L227.617,57.439c2.246,1.867,4.573,3.624,6.97,5.27
			c3.488,2.188,7.913,4.737,12.478,7.234c7.197,3.474,14.829,6.044,22.726,7.619l11.121,2.217c3.315,0.661,5.702,3.57,5.702,6.95v0
			v6.812l2.429-3.483c2.491-3.571,4.031-7.693,4.54-11.985c-1.042-1.607-2.693-2.937-5.254-3.528
			c-7.097-1.638-30.389-3.338-45.492-12.223c-15.103-8.885-17.096-17.377-17.096-17.377S225.377,53.557,227.617,57.439z"/>
		<path style="fill:#8D562A;" d="M215.052,81.499c0.069-0.467,0.143-0.933,0.23-1.396c0.065-0.351,0.142-0.699,0.217-1.047
			c0.115-0.531,0.227-1.063,0.365-1.588c1.219-4.635,3.333-9.018,6.281-12.874l5.471-7.155c-0.001,0.001-6.762,5.501-13.44,13.738
			c0,0,0,0,0,0s-3.966,4.958-8.341-1.64c-0.002,3.806,0.568,7.648,1.618,11.377c1.414,5.023,4.949,13.506,6.474,17.082l0,0
			c0.001,0.002,0.002,0.004,0.003,0.006c0.442,1.036,0.723,1.68,0.723,1.68V86.728v0c0-0.892,0.045-1.781,0.109-2.666
			c0.028-0.366,0.07-0.729,0.109-1.093C214.922,82.477,214.981,81.987,215.052,81.499z"/>
		<path style="fill:#C07438;" d="M273.892,45.793c0,0-5.459-10.675-18.439-11.04c-12.98-0.364-16.499,4.246-15.771,7.764
			c0.728,3.518,11.039,11.282,21.351,12.253C271.345,55.741,276.197,51.009,273.892,45.793z"/>
		<path style="fill:#C07438;" d="M219.745,49.864c0,0-3.085,0.245-5.907,3.723c-2.822,3.478-3.438,5.988-2.539,7.857
			c1.014,2.109,7.96-0.557,10.165-5.158C223.408,52.232,222.635,49.67,219.745,49.864z"/>
		<path style="fill:#ECC19C;" d="M273.814,226.638l-9.175,1.51c-5.358,0.882-8.987,5.94-8.105,11.298s5.94,8.987,11.298,8.105
			l10.341-1.702L273.814,226.638z"/>
		<polygon style="fill:#FFFFFF;" points="273.814,226.638 267.697,227.645 272.307,246.815 278.173,245.849 		"/>
		<path style="fill:#ECC19C;" d="M169.24,262.663h-3.397c-3.149,0-5.702-2.553-5.702-5.702v-10.518c0-3.149,2.553-5.702,5.702-5.702
			h3.397c3.149,0,5.702,2.553,5.702,5.702v10.518C174.941,260.11,172.389,262.663,169.24,262.663z"/>
		<path style="fill:#E2413E;" d="M251.065,128.892h-0.112c-8.983,0-16.265-7.282-16.265-16.265l0,0h32.643l0,0
			C267.331,121.609,260.048,128.892,251.065,128.892z"/>
		<path style="fill:#FFFFFF;" d="M263.796,116.639h-25.578c-1.312,0-2.445-0.918-2.717-2.202l0,0
			c-0.104-0.491,0.27-0.952,0.772-0.952h29.469c0.503,0,0.877,0.464,0.771,0.955l-0.002,0.008
			C266.235,115.727,265.104,116.639,263.796,116.639z"/>
		<path style="fill:#F56462;" d="M251.009,120.759c-4.905,0-9.207,1.29-11.681,3.233c2.953,3.02,7.067,4.9,11.625,4.9h0.112
			c4.557,0,8.671-1.88,11.625-4.9C260.216,122.049,255.914,120.759,251.009,120.759z"/>
		<polygon style="fill:#E2E2E2;" points="249.063,152.026 238.557,146.046 239.175,156.958 242.876,158.007 		"/>
		<polygon style="fill:#E2E2E2;" points="249.063,152.026 261.148,146.046 260.56,156.412 254.886,158.007 		"/>
		<rect x="181" y="241.375" style="fill:#E2413E;" width="3.75" height="19.75"/>
		<rect x="184.75" y="236.25" style="fill:#C0CA33;" width="3.75" height="24.875"/>
		<rect x="196.328" y="237.836" style="fill:#E2413E;" width="3.75" height="23.289"/>
		<rect x="200.078" y="230.875" style="fill:#C0CA33;" width="3.75" height="30.25"/>
		<rect x="211.657" y="241.375" style="fill:#E2413E;" width="3.75" height="19.75"/>
		<rect x="215.407" y="236.25" style="fill:#C0CA33;" width="3.75" height="24.875"/>
		<rect x="226.985" y="226.638" style="fill:#E2413E;" width="3.75" height="34.487"/>
		<rect x="230.735" y="230.875" style="fill:#C0CA33;" width="3.75" height="30.25"/>
		<rect x="242.313" y="224.833" style="fill:#E2413E;" width="3.75" height="36.292"/>
		<rect x="246.063" y="219.333" style="fill:#C0CA33;" width="3.75" height="41.792"/>
		<polyline style="fill:none;stroke:#00AC65;stroke-width:2;stroke-miterlimit:10;" points="180,238.833 201.953,230.875 
			217.282,236.25 232.61,230.875 255.446,214.333 		"/>
		<polyline style="fill:none;stroke:#00AC65;stroke-width:2;stroke-miterlimit:10;" points="250.034,214.333 255.446,214.333 
			255.446,219.333 		"/>
	</g>
</g>
<g id="Designed_By_Freepik">
	<g>
		<path style="fill:#424242;" d="M178.765,483.928v-0.161c-0.218,0.249-0.432,0.452-0.644,0.608
			c-0.212,0.157-0.441,0.276-0.689,0.356c-0.247,0.082-0.517,0.122-0.81,0.122c-0.388,0-0.748-0.082-1.078-0.246
			c-0.33-0.164-0.616-0.399-0.857-0.703c-0.243-0.305-0.425-0.663-0.549-1.075c-0.125-0.412-0.188-0.857-0.188-1.336
			c0-1.013,0.247-1.803,0.742-2.369c0.494-0.565,1.146-0.848,1.953-0.848c0.466,0,0.861,0.081,1.181,0.24
			c0.321,0.16,0.633,0.408,0.938,0.739v-2.392c0-0.333,0.066-0.584,0.199-0.754c0.132-0.17,0.321-0.255,0.567-0.255
			c0.245,0,0.434,0.078,0.566,0.234c0.133,0.157,0.199,0.386,0.199,0.691v7.147c0,0.309-0.071,0.54-0.214,0.694
			c-0.143,0.154-0.326,0.231-0.552,0.231c-0.222,0-0.405-0.08-0.549-0.24C178.837,484.453,178.765,484.225,178.765,483.928
			 M175.577,481.548c0,0.439,0.068,0.813,0.205,1.122c0.136,0.309,0.323,0.541,0.561,0.697c0.237,0.157,0.497,0.236,0.778,0.236
			c0.285,0,0.545-0.074,0.781-0.223c0.235-0.148,0.423-0.376,0.564-0.682c0.141-0.307,0.21-0.691,0.21-1.149
			c0-0.432-0.069-0.803-0.21-1.114c-0.141-0.31-0.331-0.547-0.57-0.712c-0.239-0.164-0.502-0.245-0.786-0.245
			c-0.297,0-0.562,0.084-0.796,0.251c-0.234,0.168-0.414,0.409-0.543,0.724C175.641,480.767,175.577,481.132,175.577,481.548"/>
		<path style="fill:#424242;" d="M185.911,481.958h-3.169c0.004,0.368,0.078,0.692,0.223,0.973c0.145,0.281,0.337,0.493,0.576,0.635
			c0.24,0.143,0.504,0.213,0.793,0.213c0.193,0,0.371-0.022,0.532-0.067c0.16-0.046,0.315-0.117,0.466-0.214
			c0.15-0.096,0.288-0.201,0.415-0.311c0.126-0.112,0.29-0.263,0.493-0.452c0.083-0.071,0.202-0.107,0.357-0.107
			c0.166,0,0.301,0.046,0.403,0.137c0.102,0.092,0.155,0.219,0.155,0.386c0,0.146-0.058,0.317-0.172,0.513
			c-0.116,0.196-0.289,0.384-0.519,0.564c-0.233,0.18-0.523,0.329-0.873,0.448c-0.35,0.119-0.753,0.178-1.208,0.178
			c-1.041,0-1.85-0.297-2.427-0.891c-0.578-0.593-0.867-1.399-0.867-2.416c0-0.479,0.071-0.924,0.214-1.333
			c0.143-0.41,0.351-0.76,0.623-1.053c0.273-0.293,0.609-0.517,1.009-0.674c0.4-0.156,0.843-0.234,1.33-0.234
			c0.633,0,1.176,0.132,1.629,0.4c0.454,0.267,0.793,0.612,1.018,1.035c0.225,0.424,0.339,0.856,0.339,1.294
			c0,0.408-0.117,0.672-0.35,0.793C186.664,481.897,186.335,481.958,185.911,481.958 M182.741,481.038h2.939
			c-0.039-0.554-0.19-0.969-0.449-1.244c-0.259-0.275-0.6-0.413-1.024-0.413c-0.404,0-0.735,0.139-0.994,0.418
			C182.954,480.078,182.797,480.491,182.741,481.038"/>
		<path style="fill:#424242;" d="M193.295,482.734c0,0.447-0.108,0.831-0.326,1.149c-0.217,0.319-0.539,0.56-0.965,0.724
			c-0.425,0.164-0.942,0.246-1.552,0.246c-0.582,0-1.081-0.089-1.496-0.267c-0.415-0.178-0.722-0.401-0.92-0.667
			c-0.198-0.268-0.297-0.535-0.297-0.805c0-0.178,0.063-0.33,0.19-0.456c0.127-0.126,0.288-0.19,0.481-0.19
			c0.17,0,0.3,0.042,0.391,0.125c0.091,0.083,0.179,0.2,0.261,0.35c0.166,0.29,0.366,0.504,0.597,0.648
			c0.231,0.142,0.547,0.214,0.947,0.214c0.324,0,0.59-0.073,0.799-0.217c0.208-0.145,0.311-0.31,0.311-0.496
			c0-0.285-0.107-0.492-0.324-0.623c-0.215-0.131-0.571-0.256-1.066-0.375c-0.558-0.138-1.012-0.284-1.362-0.436
			c-0.35-0.151-0.63-0.353-0.84-0.602c-0.21-0.25-0.315-0.557-0.315-0.92c0-0.324,0.097-0.631,0.29-0.92
			c0.194-0.288,0.48-0.519,0.859-0.691c0.378-0.173,0.833-0.259,1.367-0.259c0.42,0,0.797,0.043,1.131,0.131
			c0.335,0.086,0.614,0.204,0.838,0.35c0.224,0.145,0.394,0.308,0.51,0.486c0.117,0.178,0.175,0.352,0.175,0.523
			c0,0.185-0.063,0.338-0.186,0.457c-0.124,0.118-0.302,0.178-0.532,0.178c-0.166,0-0.308-0.048-0.424-0.144
			c-0.116-0.094-0.25-0.236-0.4-0.426c-0.123-0.158-0.266-0.285-0.433-0.381c-0.167-0.095-0.392-0.142-0.678-0.142
			c-0.293,0-0.536,0.062-0.73,0.187c-0.194,0.124-0.291,0.279-0.291,0.465c0,0.171,0.07,0.31,0.213,0.419
			c0.143,0.109,0.335,0.2,0.576,0.27c0.242,0.071,0.573,0.158,0.997,0.261c0.502,0.123,0.913,0.27,1.231,0.439
			c0.318,0.17,0.56,0.371,0.725,0.603C193.213,482.174,193.295,482.438,193.295,482.734"/>
		<path style="fill:#424242;" d="M194.951,477.512c-0.226,0-0.418-0.07-0.579-0.208c-0.16-0.138-0.24-0.334-0.24-0.588
			c0-0.23,0.082-0.418,0.246-0.567c0.163-0.149,0.355-0.223,0.573-0.223c0.21,0,0.396,0.067,0.558,0.202
			c0.163,0.135,0.244,0.33,0.244,0.588c0,0.25-0.079,0.444-0.238,0.585C195.356,477.441,195.168,477.512,194.951,477.512
			 M195.753,479.185v4.683c0,0.325-0.077,0.571-0.232,0.737c-0.154,0.167-0.35,0.249-0.587,0.249c-0.238,0-0.431-0.085-0.579-0.255
			c-0.149-0.17-0.222-0.414-0.222-0.731v-4.636c0-0.32,0.074-0.562,0.222-0.724c0.148-0.162,0.341-0.243,0.579-0.243
			c0.238,0,0.433,0.081,0.587,0.243C195.675,478.671,195.753,478.897,195.753,479.185"/>
		<path style="fill:#424242;" d="M202.852,479.453v4.707c0,0.538-0.058,1.001-0.173,1.39c-0.114,0.387-0.298,0.708-0.551,0.961
			c-0.254,0.253-0.585,0.441-0.994,0.563c-0.41,0.123-0.919,0.184-1.529,0.184c-0.558,0-1.056-0.078-1.496-0.234
			c-0.439-0.157-0.777-0.358-1.015-0.605c-0.237-0.247-0.356-0.502-0.356-0.763c0-0.198,0.067-0.359,0.203-0.483
			c0.134-0.125,0.297-0.187,0.486-0.187c0.237,0,0.445,0.105,0.624,0.314c0.086,0.107,0.176,0.215,0.27,0.324
			c0.093,0.109,0.197,0.202,0.309,0.28c0.113,0.076,0.249,0.134,0.407,0.171c0.158,0.037,0.341,0.056,0.546,0.056
			c0.419,0,0.745-0.058,0.977-0.175c0.231-0.117,0.394-0.28,0.487-0.49c0.093-0.209,0.147-0.433,0.163-0.673
			c0.016-0.24,0.028-0.624,0.036-1.155c-0.25,0.349-0.537,0.615-0.864,0.797c-0.326,0.182-0.715,0.273-1.166,0.273
			c-0.542,0-1.016-0.139-1.422-0.416c-0.405-0.277-0.717-0.665-0.934-1.163c-0.218-0.499-0.326-1.074-0.326-1.727
			c0-0.487,0.066-0.927,0.198-1.318c0.133-0.392,0.322-0.723,0.568-0.992c0.245-0.269,0.528-0.472,0.848-0.608
			c0.321-0.136,0.673-0.204,1.057-0.204c0.459,0,0.857,0.089,1.194,0.264c0.336,0.177,0.649,0.453,0.938,0.829v-0.22
			c0-0.281,0.069-0.499,0.208-0.654c0.139-0.153,0.317-0.231,0.535-0.231c0.313,0,0.52,0.102,0.623,0.306
			C202.8,478.774,202.852,479.069,202.852,479.453 M198.156,481.506c0,0.657,0.143,1.154,0.43,1.49
			c0.287,0.337,0.658,0.505,1.113,0.505c0.269,0,0.523-0.073,0.762-0.217c0.24-0.145,0.435-0.362,0.586-0.653
			c0.149-0.291,0.225-0.643,0.225-1.06c0-0.66-0.145-1.176-0.436-1.543c-0.291-0.368-0.674-0.552-1.149-0.552
			c-0.463,0-0.834,0.176-1.113,0.529C198.296,480.356,198.156,480.858,198.156,481.506"/>
		<path style="fill:#424242;" d="M205.427,479.161v0.196c0.285-0.376,0.596-0.652,0.935-0.828c0.338-0.176,0.727-0.264,1.166-0.264
			c0.427,0,0.809,0.093,1.146,0.28c0.336,0.186,0.588,0.449,0.754,0.789c0.108,0.198,0.176,0.413,0.207,0.642
			c0.032,0.23,0.049,0.522,0.049,0.879v3.015c0,0.325-0.075,0.571-0.223,0.737c-0.149,0.166-0.341,0.249-0.579,0.249
			c-0.242,0-0.438-0.085-0.588-0.255c-0.151-0.17-0.225-0.414-0.225-0.731v-2.701c0-0.534-0.075-0.943-0.223-1.226
			c-0.149-0.283-0.444-0.425-0.887-0.425c-0.289,0-0.552,0.086-0.789,0.258c-0.237,0.173-0.412,0.41-0.522,0.71
			c-0.079,0.242-0.119,0.692-0.119,1.353v2.03c0,0.328-0.076,0.576-0.228,0.74c-0.152,0.164-0.349,0.246-0.59,0.246
			c-0.234,0-0.426-0.085-0.576-0.255c-0.15-0.17-0.226-0.414-0.226-0.731v-4.683c0-0.309,0.068-0.54,0.202-0.692
			c0.135-0.151,0.319-0.228,0.552-0.228c0.143,0,0.271,0.034,0.387,0.101c0.114,0.068,0.206,0.169,0.276,0.302
			C205.393,478.803,205.427,478.968,205.427,479.161"/>
		<path style="fill:#424242;" d="M215.286,481.958h-3.17c0.004,0.368,0.078,0.692,0.223,0.973c0.144,0.281,0.336,0.493,0.576,0.635
			c0.239,0.143,0.503,0.213,0.792,0.213c0.194,0,0.372-0.022,0.532-0.067c0.159-0.046,0.315-0.117,0.466-0.214
			c0.149-0.096,0.288-0.201,0.416-0.311c0.126-0.112,0.29-0.263,0.492-0.452c0.083-0.071,0.202-0.107,0.356-0.107
			c0.166,0,0.301,0.046,0.404,0.137c0.103,0.092,0.154,0.219,0.154,0.386c0,0.146-0.058,0.317-0.172,0.513
			c-0.115,0.196-0.288,0.384-0.519,0.564c-0.232,0.18-0.522,0.329-0.872,0.448c-0.35,0.119-0.753,0.178-1.208,0.178
			c-1.041,0-1.85-0.297-2.428-0.891c-0.578-0.593-0.866-1.399-0.866-2.416c0-0.479,0.071-0.924,0.213-1.333
			c0.143-0.41,0.351-0.76,0.624-1.053c0.272-0.293,0.609-0.517,1.009-0.674c0.399-0.156,0.843-0.234,1.33-0.234
			c0.633,0,1.175,0.132,1.629,0.4c0.453,0.267,0.793,0.612,1.019,1.035c0.225,0.424,0.338,0.856,0.338,1.294
			c0,0.408-0.117,0.672-0.351,0.793C216.038,481.897,215.71,481.958,215.286,481.958 M212.117,481.038h2.938
			c-0.039-0.554-0.189-0.969-0.448-1.244c-0.259-0.275-0.601-0.413-1.024-0.413c-0.404,0-0.736,0.139-0.995,0.418
			C212.328,480.078,212.172,480.491,212.117,481.038"/>
		<path style="fill:#424242;" d="M221.893,483.928v-0.161c-0.218,0.249-0.432,0.452-0.645,0.608
			c-0.212,0.157-0.44,0.276-0.688,0.356c-0.247,0.082-0.518,0.122-0.81,0.122c-0.389,0-0.747-0.082-1.077-0.246
			c-0.331-0.164-0.617-0.399-0.858-0.703c-0.241-0.305-0.424-0.663-0.549-1.075c-0.125-0.412-0.188-0.857-0.188-1.336
			c0-1.013,0.247-1.803,0.743-2.369c0.494-0.565,1.146-0.848,1.953-0.848c0.467,0,0.86,0.081,1.181,0.24
			c0.32,0.16,0.633,0.408,0.938,0.739v-2.392c0-0.333,0.066-0.584,0.199-0.754c0.132-0.17,0.322-0.255,0.568-0.255
			c0.245,0,0.434,0.078,0.566,0.234c0.132,0.157,0.2,0.386,0.2,0.691v7.147c0,0.309-0.072,0.54-0.214,0.694
			c-0.143,0.154-0.326,0.231-0.552,0.231c-0.222,0-0.405-0.08-0.549-0.24C221.965,484.453,221.893,484.225,221.893,483.928
			 M218.705,481.548c0,0.439,0.068,0.813,0.204,1.122c0.137,0.309,0.324,0.541,0.562,0.697c0.237,0.157,0.496,0.236,0.777,0.236
			c0.285,0,0.546-0.074,0.781-0.223c0.236-0.148,0.424-0.376,0.564-0.682c0.141-0.307,0.211-0.691,0.211-1.149
			c0-0.432-0.071-0.803-0.211-1.114c-0.14-0.31-0.33-0.547-0.57-0.712c-0.239-0.164-0.501-0.245-0.786-0.245
			c-0.296,0-0.562,0.084-0.796,0.251c-0.233,0.168-0.414,0.409-0.543,0.724C218.769,480.767,218.705,481.132,218.705,481.548"/>
		<path style="fill:#424242;" d="M228.516,476.781v2.475c0.305-0.316,0.616-0.559,0.933-0.727c0.316-0.168,0.708-0.252,1.175-0.252
			c0.538,0,1.01,0.128,1.416,0.382c0.405,0.256,0.72,0.626,0.944,1.111c0.223,0.484,0.336,1.06,0.336,1.725
			c0,0.491-0.063,0.94-0.187,1.35c-0.125,0.409-0.306,0.765-0.543,1.065c-0.238,0.301-0.526,0.534-0.864,0.698
			c-0.339,0.164-0.712,0.246-1.119,0.246c-0.249,0-0.484-0.029-0.703-0.089c-0.22-0.059-0.408-0.137-0.561-0.234
			c-0.154-0.096-0.286-0.197-0.395-0.3c-0.109-0.103-0.253-0.258-0.431-0.463v0.161c0,0.304-0.073,0.535-0.219,0.692
			c-0.146,0.156-0.332,0.234-0.558,0.234c-0.229,0-0.412-0.077-0.549-0.234c-0.137-0.157-0.205-0.388-0.205-0.692v-7.077
			c0-0.328,0.066-0.577,0.199-0.745c0.132-0.168,0.318-0.252,0.555-0.252c0.25,0,0.441,0.08,0.576,0.24
			C228.449,476.256,228.516,476.484,228.516,476.781 M228.593,481.595c0,0.645,0.148,1.14,0.443,1.486
			c0.294,0.347,0.682,0.521,1.161,0.521c0.407,0,0.759-0.177,1.053-0.532c0.295-0.355,0.442-0.862,0.442-1.523
			c0-0.427-0.061-0.796-0.184-1.104c-0.123-0.309-0.297-0.547-0.522-0.715c-0.226-0.168-0.49-0.252-0.789-0.252
			c-0.309,0-0.585,0.084-0.826,0.252c-0.242,0.168-0.431,0.411-0.57,0.73C228.663,480.776,228.593,481.156,228.593,481.595"/>
		<path style="fill:#424242;" d="M235.42,485.056l0.148-0.362l-1.995-5.022c-0.122-0.288-0.184-0.499-0.184-0.629
			c0-0.139,0.036-0.267,0.107-0.385c0.072-0.119,0.17-0.214,0.294-0.285c0.125-0.072,0.255-0.107,0.389-0.107
			c0.233,0,0.409,0.074,0.528,0.223c0.119,0.148,0.224,0.361,0.314,0.638l1.372,3.989l1.3-3.71c0.103-0.3,0.196-0.536,0.279-0.706
			c0.083-0.17,0.171-0.285,0.264-0.344c0.093-0.06,0.225-0.09,0.395-0.09c0.123,0,0.24,0.032,0.354,0.098
			c0.113,0.065,0.199,0.153,0.261,0.264c0.061,0.111,0.092,0.227,0.092,0.35c-0.016,0.074-0.041,0.182-0.077,0.321
			c-0.036,0.138-0.079,0.28-0.13,0.421l-2.114,5.533c-0.182,0.486-0.36,0.868-0.534,1.145c-0.175,0.277-0.404,0.491-0.692,0.638
			c-0.287,0.149-0.674,0.223-1.161,0.223c-0.475,0-0.831-0.051-1.068-0.154c-0.238-0.104-0.356-0.291-0.356-0.565
			c0-0.185,0.055-0.33,0.169-0.43c0.112-0.101,0.279-0.153,0.501-0.153c0.087,0,0.172,0.012,0.255,0.037
			c0.103,0.023,0.192,0.035,0.267,0.035c0.186,0,0.332-0.027,0.439-0.084c0.107-0.055,0.202-0.151,0.288-0.288
			C235.211,485.522,235.309,485.321,235.42,485.056"/>
		<path style="fill:#424242;" d="M258.896,478.405h0.386v-0.486c0-0.509,0.063-0.911,0.192-1.211
			c0.128-0.299,0.347-0.516,0.654-0.653c0.306-0.135,0.727-0.204,1.26-0.204c0.95,0,1.421,0.229,1.421,0.696
			c0,0.149-0.049,0.278-0.15,0.384c-0.097,0.106-0.214,0.16-0.348,0.16c-0.063,0-0.174-0.012-0.33-0.037
			c-0.149-0.021-0.283-0.035-0.39-0.035c-0.292,0-0.479,0.088-0.566,0.26c-0.079,0.172-0.121,0.418-0.121,0.74v0.386h0.395
			c0.619,0,0.925,0.186,0.925,0.56c0,0.262-0.079,0.432-0.245,0.503c-0.164,0.072-0.39,0.107-0.681,0.107h-0.395v4.294
			c0,0.319-0.075,0.563-0.231,0.73c-0.151,0.17-0.347,0.254-0.59,0.254c-0.23,0-0.419-0.084-0.574-0.254
			c-0.153-0.167-0.228-0.411-0.228-0.73v-4.294h-0.446c-0.242,0-0.426-0.052-0.558-0.164c-0.131-0.107-0.197-0.25-0.197-0.424
			C258.082,478.597,258.354,478.405,258.896,478.405"/>
		<path style="fill:#424242;" d="M264.202,482.514v1.355c0,0.327-0.083,0.574-0.234,0.737c-0.154,0.166-0.349,0.247-0.585,0.247
			c-0.239,0-0.43-0.082-0.579-0.25c-0.148-0.165-0.226-0.41-0.226-0.734v-4.514c0-0.729,0.262-1.093,0.788-1.093
			c0.272,0,0.465,0.084,0.584,0.256c0.118,0.17,0.184,0.421,0.198,0.755c0.193-0.334,0.39-0.585,0.593-0.755
			c0.207-0.172,0.477-0.256,0.819-0.256c0.343,0,0.669,0.084,0.991,0.256c0.322,0.17,0.482,0.397,0.482,0.677
			c0,0.197-0.069,0.363-0.204,0.488c-0.137,0.131-0.284,0.195-0.441,0.195c-0.062,0-0.207-0.039-0.432-0.112
			c-0.228-0.072-0.431-0.109-0.602-0.109c-0.238,0-0.433,0.064-0.583,0.187c-0.151,0.128-0.269,0.31-0.352,0.553
			c-0.081,0.247-0.137,0.541-0.171,0.878C264.217,481.615,264.202,482.028,264.202,482.514"/>
		<path style="fill:#424242;" d="M271.653,481.956h-3.171c0.006,0.368,0.078,0.694,0.222,0.974c0.148,0.279,0.338,0.491,0.578,0.635
			c0.24,0.142,0.503,0.212,0.793,0.212c0.193,0,0.37-0.021,0.53-0.07c0.159-0.043,0.315-0.116,0.466-0.212
			c0.151-0.096,0.287-0.2,0.415-0.313c0.126-0.11,0.291-0.261,0.494-0.45c0.084-0.071,0.203-0.109,0.355-0.109
			c0.168,0,0.301,0.046,0.406,0.139c0.104,0.092,0.153,0.219,0.153,0.386c0,0.147-0.056,0.317-0.168,0.512
			c-0.117,0.198-0.289,0.385-0.522,0.566c-0.234,0.179-0.524,0.33-0.873,0.446c-0.35,0.119-0.754,0.179-1.208,0.179
			c-1.044,0-1.853-0.295-2.429-0.889c-0.577-0.595-0.869-1.401-0.869-2.418c0-0.479,0.073-0.924,0.217-1.334
			c0.141-0.411,0.349-0.76,0.624-1.055c0.273-0.294,0.606-0.518,1.008-0.674c0.398-0.156,0.841-0.234,1.33-0.234
			c0.631,0,1.175,0.134,1.628,0.404c0.453,0.264,0.797,0.61,1.019,1.034c0.225,0.425,0.339,0.855,0.339,1.296
			c0,0.405-0.118,0.669-0.352,0.791C272.404,481.896,272.077,481.956,271.653,481.956 M268.481,481.035h2.938
			c-0.038-0.553-0.186-0.969-0.446-1.242c-0.261-0.276-0.599-0.412-1.025-0.412c-0.404,0-0.736,0.137-0.995,0.418
			C268.695,480.078,268.536,480.489,268.481,481.035"/>
		<path style="fill:#424242;" d="M278.395,481.956h-3.17c0.004,0.368,0.078,0.694,0.222,0.974c0.145,0.279,0.336,0.491,0.575,0.635
			c0.239,0.142,0.504,0.212,0.795,0.212c0.192,0,0.371-0.021,0.528-0.07c0.161-0.043,0.315-0.116,0.469-0.212
			c0.151-0.096,0.288-0.2,0.415-0.313c0.125-0.11,0.29-0.261,0.493-0.45c0.084-0.071,0.204-0.109,0.355-0.109
			c0.168,0,0.303,0.046,0.406,0.139c0.104,0.092,0.151,0.219,0.151,0.386c0,0.147-0.054,0.317-0.172,0.512
			c-0.11,0.198-0.285,0.385-0.519,0.566c-0.231,0.179-0.525,0.33-0.872,0.446c-0.349,0.119-0.755,0.179-1.21,0.179
			c-1.042,0-1.849-0.295-2.429-0.889c-0.577-0.595-0.867-1.401-0.867-2.418c0-0.479,0.073-0.924,0.217-1.334
			c0.142-0.411,0.35-0.76,0.623-1.055c0.272-0.294,0.607-0.518,1.009-0.674c0.398-0.156,0.844-0.234,1.331-0.234
			c0.63,0,1.174,0.134,1.633,0.404c0.45,0.264,0.791,0.61,1.013,1.034c0.225,0.425,0.341,0.855,0.341,1.296
			c0,0.405-0.12,0.669-0.352,0.791C279.145,481.896,278.817,481.956,278.395,481.956 M275.225,481.035h2.938
			c-0.039-0.553-0.19-0.969-0.447-1.242c-0.263-0.276-0.601-0.412-1.026-0.412c-0.404,0-0.735,0.137-0.995,0.418
			C275.436,480.078,275.277,480.489,275.225,481.035"/>
		<path style="fill:#424242;" d="M281.945,479.174v0.194c0.304-0.375,0.621-0.651,0.953-0.828c0.325-0.178,0.7-0.267,1.115-0.267
			c0.497,0,0.96,0.13,1.38,0.386c0.419,0.259,0.749,0.635,0.992,1.129c0.243,0.497,0.366,1.081,0.366,1.758
			c0,0.497-0.07,0.957-0.21,1.376c-0.139,0.417-0.336,0.767-0.58,1.05c-0.247,0.281-0.535,0.501-0.869,0.654
			c-0.339,0.151-0.694,0.227-1.079,0.227c-0.462,0-0.853-0.093-1.166-0.28c-0.314-0.182-0.614-0.458-0.901-0.816v2.433
			c0,0.71-0.26,1.069-0.777,1.069c-0.306,0-0.506-0.091-0.608-0.274c-0.094-0.187-0.145-0.453-0.145-0.807v-6.997
			c0-0.309,0.066-0.537,0.2-0.692c0.135-0.15,0.32-0.228,0.554-0.228c0.23,0,0.416,0.078,0.559,0.234
			C281.874,478.654,281.945,478.877,281.945,479.174 M285.122,481.528c0-0.427-0.066-0.796-0.197-1.102
			c-0.13-0.308-0.312-0.542-0.542-0.705c-0.229-0.164-0.489-0.248-0.77-0.248c-0.447,0-0.825,0.178-1.131,0.527
			c-0.308,0.354-0.462,0.872-0.462,1.558c0,0.642,0.153,1.146,0.46,1.504c0.305,0.358,0.679,0.537,1.133,0.537
			c0.268,0,0.519-0.078,0.748-0.233c0.232-0.158,0.416-0.391,0.553-0.704C285.053,482.35,285.122,481.971,285.122,481.528"/>
		<path style="fill:#424242;" d="M288.383,477.507c-0.227,0-0.418-0.071-0.577-0.209c-0.163-0.139-0.243-0.333-0.243-0.585
			c0-0.23,0.082-0.419,0.248-0.569c0.164-0.146,0.354-0.222,0.571-0.222c0.212,0,0.397,0.067,0.558,0.2
			c0.162,0.137,0.244,0.334,0.244,0.591c0,0.25-0.079,0.444-0.236,0.585C288.79,477.436,288.602,477.507,288.383,477.507
			 M289.185,479.181v4.689c0,0.322-0.077,0.568-0.231,0.732c-0.156,0.168-0.351,0.25-0.588,0.25c-0.238,0-0.428-0.083-0.58-0.254
			c-0.146-0.173-0.223-0.416-0.223-0.729v-4.642c0-0.319,0.076-0.559,0.223-0.721c0.152-0.165,0.342-0.245,0.58-0.245
			c0.237,0,0.432,0.079,0.588,0.245C289.108,478.669,289.185,478.895,289.185,479.181"/>
		<path style="fill:#424242;" d="M294.41,484.113l-1.428-2.354l-0.88,0.83v1.291c0,0.312-0.083,0.551-0.249,0.718
			c-0.16,0.17-0.353,0.254-0.566,0.254c-0.25,0-0.447-0.082-0.588-0.25c-0.141-0.164-0.214-0.41-0.214-0.734v-6.915
			c0-0.358,0.071-0.632,0.207-0.821c0.139-0.19,0.341-0.283,0.596-0.283c0.249,0,0.446,0.085,0.593,0.257
			c0.147,0.169,0.222,0.421,0.222,0.751v3.934l1.823-1.914c0.226-0.235,0.395-0.4,0.517-0.487c0.118-0.087,0.262-0.13,0.43-0.13
			c0.204,0,0.372,0.065,0.51,0.193c0.132,0.129,0.2,0.291,0.2,0.483c0,0.237-0.221,0.555-0.66,0.951l-0.861,0.789l1.662,2.614
			c0.121,0.196,0.212,0.34,0.265,0.441c0.052,0.1,0.081,0.2,0.081,0.289c0,0.258-0.071,0.459-0.213,0.61
			c-0.14,0.148-0.327,0.221-0.553,0.221c-0.198,0-0.353-0.051-0.459-0.16C294.739,484.585,294.591,484.391,294.41,484.113"/>
		<path style="fill:#424242;" d="M297.931,484.853c-0.245,0-0.455-0.079-0.633-0.238c-0.178-0.156-0.267-0.379-0.267-0.665
			c0-0.241,0.086-0.449,0.256-0.622c0.171-0.174,0.379-0.262,0.63-0.262c0.248,0,0.46,0.087,0.638,0.258
			c0.175,0.172,0.264,0.383,0.264,0.626c0,0.283-0.09,0.505-0.264,0.662C298.376,484.774,298.169,484.853,297.931,484.853"/>
		<path style="fill:#424242;" d="M305.993,482.847c0,0.2-0.061,0.417-0.182,0.646c-0.119,0.231-0.305,0.448-0.554,0.656
			c-0.246,0.207-0.557,0.376-0.935,0.502c-0.375,0.126-0.799,0.192-1.268,0.192c-1.005,0-1.786-0.294-2.349-0.876
			c-0.559-0.585-0.841-1.368-0.841-2.35c0-0.667,0.128-1.254,0.388-1.765c0.255-0.509,0.627-0.905,1.113-1.184
			c0.486-0.28,1.072-0.419,1.746-0.419c0.42,0,0.805,0.062,1.157,0.185c0.351,0.122,0.645,0.282,0.891,0.474
			c0.242,0.197,0.429,0.402,0.557,0.62c0.129,0.22,0.192,0.425,0.192,0.617c0,0.192-0.071,0.357-0.214,0.492
			c-0.148,0.134-0.322,0.203-0.524,0.203c-0.137,0-0.249-0.035-0.338-0.104c-0.09-0.07-0.19-0.181-0.3-0.339
			c-0.198-0.298-0.404-0.526-0.623-0.674c-0.214-0.152-0.487-0.226-0.82-0.226c-0.476,0-0.865,0.186-1.159,0.561
			c-0.292,0.372-0.439,0.887-0.439,1.534c0,0.305,0.039,0.587,0.114,0.842c0.073,0.254,0.182,0.472,0.325,0.652
			c0.144,0.179,0.315,0.315,0.516,0.409c0.203,0.096,0.426,0.141,0.665,0.141c0.325,0,0.604-0.075,0.835-0.225
			c0.235-0.151,0.439-0.38,0.617-0.689c0.098-0.182,0.204-0.323,0.318-0.427c0.113-0.102,0.256-0.156,0.422-0.156
			c0.198,0,0.363,0.077,0.492,0.227C305.927,482.516,305.993,482.678,305.993,482.847"/>
		<path style="fill:#424242;" d="M312.988,481.559c0,0.482-0.077,0.928-0.223,1.337c-0.154,0.408-0.37,0.759-0.656,1.049
			c-0.284,0.293-0.626,0.518-1.02,0.675c-0.399,0.155-0.843,0.234-1.336,0.234c-0.491,0-0.933-0.079-1.326-0.239
			c-0.389-0.156-0.732-0.384-1.016-0.676c-0.288-0.298-0.506-0.646-0.657-1.048c-0.144-0.402-0.22-0.846-0.22-1.332
			c0-0.491,0.078-0.941,0.225-1.349c0.151-0.409,0.368-0.757,0.649-1.046c0.281-0.289,0.621-0.51,1.019-0.669
			c0.402-0.156,0.843-0.234,1.326-0.234c0.49,0,0.936,0.078,1.336,0.239c0.398,0.157,0.739,0.384,1.027,0.675
			c0.286,0.296,0.502,0.643,0.65,1.044C312.912,480.627,312.988,481.07,312.988,481.559 M311.36,481.559
			c0-0.662-0.146-1.176-0.436-1.543c-0.289-0.372-0.681-0.556-1.171-0.556c-0.317,0-0.597,0.083-0.84,0.247
			c-0.242,0.164-0.425,0.406-0.556,0.728c-0.131,0.321-0.197,0.696-0.197,1.124c0,0.424,0.063,0.792,0.193,1.108
			c0.13,0.319,0.314,0.561,0.554,0.729c0.241,0.167,0.522,0.253,0.846,0.253c0.49,0,0.882-0.185,1.171-0.557
			C311.214,482.722,311.36,482.21,311.36,481.559"/>
		<path style="fill:#424242;" d="M319.17,481.678v2.154c0,0.342-0.075,0.595-0.231,0.767c-0.156,0.17-0.357,0.255-0.612,0.255
			c-0.245,0-0.446-0.085-0.594-0.255c-0.154-0.173-0.233-0.425-0.233-0.767v-2.582c0-0.408-0.012-0.726-0.039-0.953
			c-0.029-0.221-0.105-0.41-0.227-0.552c-0.123-0.147-0.317-0.22-0.581-0.22c-0.532,0-0.88,0.181-1.048,0.551
			c-0.168,0.36-0.254,0.883-0.254,1.567v2.189c0,0.336-0.077,0.591-0.227,0.765c-0.156,0.171-0.354,0.258-0.603,0.258
			c-0.247,0-0.447-0.087-0.604-0.258c-0.157-0.173-0.235-0.428-0.235-0.765v-4.637c0-0.306,0.069-0.538,0.209-0.694
			c0.143-0.161,0.328-0.239,0.555-0.239c0.223,0,0.408,0.077,0.558,0.222c0.147,0.149,0.221,0.354,0.221,0.615v0.153
			c0.284-0.334,0.585-0.582,0.903-0.738c0.322-0.162,0.676-0.241,1.07-0.241c0.407,0,0.757,0.082,1.048,0.244
			c0.294,0.163,0.534,0.409,0.726,0.735c0.275-0.33,0.568-0.577,0.881-0.738c0.313-0.16,0.657-0.241,1.039-0.241
			c0.441,0,0.825,0.089,1.146,0.262c0.319,0.174,0.557,0.425,0.717,0.747c0.138,0.295,0.206,0.756,0.206,1.385v3.164
			c0,0.342-0.076,0.595-0.23,0.767c-0.154,0.17-0.359,0.255-0.612,0.255c-0.247,0-0.446-0.087-0.603-0.258
			c-0.156-0.173-0.235-0.428-0.235-0.765v-2.726c0-0.349-0.015-0.627-0.044-0.836c-0.029-0.211-0.11-0.388-0.239-0.529
			c-0.133-0.142-0.332-0.215-0.596-0.215c-0.214,0-0.417,0.066-0.608,0.192c-0.192,0.124-0.342,0.298-0.451,0.508
			C319.232,480.5,319.17,480.984,319.17,481.678"/>
		<path style="fill:#424242;" d="M243.729,481.166c-0.001-0.003-0.001-0.006-0.001-0.011
			C243.728,481.16,243.728,481.163,243.729,481.166"/>
		<path style="fill:#424242;" d="M243.811,481.685h0.002c-0.031-0.148-0.055-0.294-0.075-0.439
			C243.758,481.392,243.782,481.539,243.811,481.685"/>
		<path style="fill:#424242;" d="M244.348,483.189c-0.004-0.006-0.007-0.013-0.011-0.021
			C244.34,483.176,244.344,483.182,244.348,483.189"/>
		<path style="fill:#424242;" d="M244.296,483.088c-0.014-0.027-0.027-0.056-0.04-0.084
			C244.269,483.034,244.283,483.061,244.296,483.088"/>
		<path style="fill:#424242;" d="M243.962,482.264c0.079,0.25,0.175,0.493,0.286,0.724c-0.113-0.236-0.206-0.479-0.284-0.724
			H243.962z"/>
		<path style="fill:#424242;" d="M250.003,474.956c0.313,0,0.545,0.025,0.81,0.07l0.074-0.477c0,0-0.732-0.225-1.693-0.146
			l-0.076-0.259c0.299-0.063,0.524-0.329,0.524-0.646c0-0.364-0.296-0.659-0.661-0.659s-0.659,0.295-0.659,0.659
			c0,0.317,0.224,0.583,0.522,0.646l0.083,0.289c-1.021,0.14-1.834,0.539-1.834,0.539l0.145,0.441
			c0.617-0.206,1.154-0.331,1.64-0.383C249.352,474.978,249.711,474.956,250.003,474.956"/>
		<path style="fill:#424242;" d="M244.335,477.368l0.004-0.005c0.024-0.031,0.048-0.061,0.071-0.089l-0.196-0.141l-0.305-0.223
			c-0.017,0.024-0.497,0.465-0.876,1.28c-0.016-0.026-0.035-0.051-0.056-0.074c-0.113-0.124-0.272-0.187-0.474-0.184h-0.009
			c-0.125,0-0.211-0.041-0.267-0.092c0.056-0.071,0.09-0.16,0.09-0.258c0-0.23-0.187-0.418-0.419-0.418
			c-0.231,0-0.417,0.188-0.417,0.418c0,0.231,0.187,0.418,0.417,0.418c0.036,0,0.071-0.006,0.104-0.013
			c0.103,0.114,0.266,0.214,0.505,0.209c0.122-0.001,0.213,0.031,0.273,0.097c0.069,0.076,0.093,0.185,0.1,0.267
			c-0.001,0.001-0.001,0.003-0.002,0.003c-0.273,0.743-0.194,1.669-0.194,1.669l0.661,0.026c0.014-0.337,0.062-0.927,0.233-1.394
			C243.907,477.958,244.319,477.391,244.335,477.368"/>
		<path style="fill:#424242;" d="M255.752,475.508c-0.23,0-0.418,0.187-0.418,0.418c0,0.036,0.006,0.07,0.015,0.103
			c-0.114,0.104-0.214,0.267-0.21,0.507c0.001,0.123-0.03,0.212-0.097,0.272c-0.053,0.047-0.119,0.072-0.185,0.088
			c-0.492-0.689-1.097-1.11-1.097-1.11l-0.474,0.508c0.358,0.326,0.725,0.734,1.08,1.244c0.247,0.353,0.499,0.806,0.71,1.259
			l0.64-0.304c0,0-0.292-0.722-0.704-1.37c0.072-0.025,0.144-0.064,0.207-0.12c0.126-0.114,0.187-0.273,0.183-0.474
			c-0.001-0.13,0.042-0.218,0.093-0.276c0.071,0.054,0.16,0.089,0.257,0.089c0.232,0,0.419-0.187,0.419-0.418
			C256.171,475.695,255.984,475.508,255.752,475.508"/>
		<path style="fill:#424242;" d="M254.092,481.26c-0.881,0.429-2.33,0.996-4.238,1.262c-0.749,0.104-1.475,0.142-2.143,0.142
			c-0.869,0-1.637-0.065-2.226-0.139c-0.673-0.085-1.198-0.189-1.52-0.261c0.077,0.244,0.171,0.487,0.284,0.723
			c0.002,0.006,0.004,0.013,0.008,0.017c0.014,0.027,0.027,0.056,0.041,0.084c0.013,0.027,0.027,0.054,0.041,0.079
			c0.004,0.007,0.007,0.015,0.011,0.021c0.189,0.356,0.416,0.684,0.675,0.968c0.9,0.984,1.817,1.14,1.826,1.141l0.014,0.002
			l0.014,0.005c0.008,0.003,0.821,0.265,2.057,0.265c1.215,0,2.409-0.245,3.546-0.729c0.842-0.431,1.639-1.085,2.034-1.669
			c0.304-0.452,0.525-0.933,0.656-1.434c0.07-0.266,0.124-0.692,0.091-1.14C255.014,480.764,254.622,481.002,254.092,481.26"/>
		<path style="fill:#424242;" d="M244.618,477.576c-0.026,0.037-0.408,0.578-0.71,1.408c-0.226,0.622-0.216,1.527-0.216,1.538v0.002
			c0,0.212,0.012,0.423,0.035,0.632c0,0.005,0,0.007,0.001,0.011c0.003,0.027,0.007,0.052,0.01,0.079
			c0.019,0.145,0.043,0.291,0.074,0.438c0.437,0.112,3.049,0.721,5.967,0.314c1.829-0.254,3.218-0.795,4.062-1.204
			c0.7-0.34,1.151-0.648,1.324-0.774c-0.173-0.643-0.651-1.65-1.089-2.279c-1.254-1.791-2.604-2.25-3.298-2.365
			c-0.265-0.043-0.477-0.068-0.778-0.068c-0.279,0-0.626,0.022-1.09,0.071c-0.464,0.048-0.982,0.17-1.582,0.372
			c-0.843,0.281-1.604,0.725-2.204,1.28l-0.021,0.019C245.017,477.133,244.831,477.305,244.618,477.576 M252.287,477.159
			c0.601,0,1.089,0.488,1.089,1.09c0,0.601-0.489,1.09-1.089,1.09c-0.601,0-1.089-0.489-1.089-1.09
			C251.198,477.647,251.686,477.159,252.287,477.159 M247.136,477.116c0.973,0,1.761,0.789,1.761,1.761
			c0,0.972-0.787,1.759-1.761,1.759c-0.972,0-1.76-0.787-1.76-1.759C245.376,477.905,246.164,477.116,247.136,477.116"/>
	</g>
</g>
</svg>
