<svg width="97" height="25" viewBox="0 0 97 25" fill="none" xmlns="http://www.w3.org/2000/svg">
<path d="M0.4 20L6.06 5.94H8.28L13.92 20H11.02L6.66 8.46H7.66L3.24 20H0.4ZM3.4 17.38V15.1H10.96V17.38H3.4ZM18.7769 20.22C18.2302 20.22 17.6902 20.1467 17.1569 20C16.6369 19.8533 16.1569 19.6533 15.7169 19.4C15.2769 19.1333 14.8969 18.8133 14.5769 18.44L16.1369 16.86C16.4702 17.2333 16.8569 17.5133 17.2969 17.7C17.7369 17.8867 18.2235 17.98 18.7569 17.98C19.1835 17.98 19.5035 17.92 19.7169 17.8C19.9435 17.68 20.0569 17.5 20.0569 17.26C20.0569 16.9933 19.9369 16.7867 19.6969 16.64C19.4702 16.4933 19.1702 16.3733 18.7969 16.28C18.4235 16.1733 18.0302 16.06 17.6169 15.94C17.2169 15.8067 16.8302 15.64 16.4569 15.44C16.0835 15.2267 15.7769 14.94 15.5369 14.58C15.3102 14.2067 15.1969 13.7267 15.1969 13.14C15.1969 12.5267 15.3435 11.9933 15.6369 11.54C15.9435 11.0867 16.3769 10.7333 16.9369 10.48C17.4969 10.2267 18.1569 10.1 18.9169 10.1C19.7169 10.1 20.4369 10.24 21.0769 10.52C21.7302 10.8 22.2702 11.22 22.6969 11.78L21.1169 13.36C20.8235 13 20.4902 12.74 20.1169 12.58C19.7569 12.42 19.3635 12.34 18.9369 12.34C18.5502 12.34 18.2502 12.4 18.0369 12.52C17.8369 12.64 17.7369 12.8067 17.7369 13.02C17.7369 13.26 17.8502 13.4467 18.0769 13.58C18.3169 13.7133 18.6235 13.8333 18.9969 13.94C19.3702 14.0333 19.7569 14.1467 20.1569 14.28C20.5702 14.4 20.9569 14.5733 21.3169 14.8C21.6902 15.0267 21.9902 15.3267 22.2169 15.7C22.4569 16.0733 22.5769 16.5533 22.5769 17.14C22.5769 18.0867 22.2369 18.84 21.5569 19.4C20.8769 19.9467 19.9502 20.22 18.7769 20.22ZM30.5036 20L26.7636 15.02L30.4836 10.34H33.5036L29.1436 15.62L29.2436 14.34L33.7036 20H30.5036ZM24.3436 20V5.54H26.9636V20H24.3436ZM35.19 20V5.94H37.91V20H35.19ZM37.19 20V17.6H44.97V20H37.19ZM37.19 13.98V11.66H44.27V13.98H37.19ZM37.19 8.34V5.94H44.87V8.34H37.19ZM52.9813 20L50.4413 16.08L49.9013 15.68L46.1413 10.34H49.2413L51.5813 13.88L52.0813 14.26L56.0612 20H52.9813ZM45.9413 20L49.8813 14.48L51.3813 16.26L48.9013 20H45.9413ZM52.1813 15.66L50.6413 13.9L52.9413 10.34H55.8812L52.1813 15.66ZM62.77 20.2C62.0767 20.2 61.45 20.06 60.89 19.78C60.33 19.4867 59.8833 19.0933 59.55 18.6C59.2167 18.1067 59.0367 17.54 59.01 16.9V13.48C59.0367 12.84 59.2167 12.2733 59.55 11.78C59.8967 11.2733 60.3433 10.8733 60.89 10.58C61.45 10.2867 62.0767 10.14 62.77 10.14C63.6633 10.14 64.4633 10.36 65.17 10.8C65.8767 11.24 66.43 11.84 66.83 12.6C67.2433 13.36 67.45 14.22 67.45 15.18C67.45 16.1267 67.2433 16.98 66.83 17.74C66.43 18.5 65.8767 19.1 65.17 19.54C64.4633 19.98 63.6633 20.2 62.77 20.2ZM57.41 24.04V10.34H60.03V12.88L59.59 15.22L60.01 17.56V24.04H57.41ZM62.31 17.78C62.79 17.78 63.2167 17.6733 63.59 17.46C63.9633 17.2333 64.25 16.9267 64.45 16.54C64.6633 16.14 64.77 15.68 64.77 15.16C64.77 14.6533 64.6633 14.2067 64.45 13.82C64.25 13.42 63.9633 13.1133 63.59 12.9C63.2167 12.6733 62.79 12.56 62.31 12.56C61.8433 12.56 61.4233 12.6733 61.05 12.9C60.6767 13.1133 60.3833 13.42 60.17 13.82C59.97 14.2067 59.87 14.6533 59.87 15.16C59.87 15.68 59.97 16.14 60.17 16.54C60.3833 16.9267 60.67 17.2333 61.03 17.46C61.4033 17.6733 61.83 17.78 62.31 17.78Z" fill="#FF2C11"/>
</svg>
